<svg width="50" height="50" viewBox="0 0 50 50" fill="none" xmlns="http://www.w3.org/2000/svg">
<g id="icon__plus">
<path id="Vector" d="M6.21875 25C6.21875 14.6274 14.6274 6.21875 25 6.21875C35.3726 6.21875 43.7812 14.6274 43.7812 25C43.7812 35.3726 35.3726 43.7812 25 43.7812C14.6274 43.7812 6.21875 35.3726 6.21875 25Z" fill="white" stroke="black" stroke-width="1.5"/>
<path id="Union" d="M23.8281 30.8594C23.8281 31.5234 24.3359 32.0312 25 32.0312C25.6641 32.0312 26.1719 31.5234 26.1719 30.8594V26.1719H30.8594C31.5234 26.1719 32.0312 25.6641 32.0312 25C32.0312 24.3359 31.5234 23.8281 30.8594 23.8281H26.1719V19.1406C26.1719 18.4766 25.6641 17.9688 25 17.9688C24.3359 17.9688 23.8281 18.4766 23.8281 19.1406V23.8281H19.1406C18.4766 23.8281 17.9688 24.3359 17.9688 25C17.9688 25.6641 18.4766 26.1719 19.1406 26.1719H23.8281V30.8594Z" fill="#F10132"/>
</g>
</svg>
