<svg>

  <symbol id="checkmark" width="30" height="30" viewBox="0 0 30 30" fill="none" xmlns="http://www.w3.org/2000/svg">
    <path fill-rule="evenodd" clip-rule="evenodd" d="M15 26.25C8.7868 26.25 3.75 21.2132 3.75 15C3.75 8.7868 8.7868 3.75 15 3.75C21.2132 3.75 26.25 8.7868 26.25 15C26.25 21.2132 21.2132 26.25 15 26.25Z" fill="#F10132"/>
    <path d="M14.0625 17.8125L11.25 15" stroke="white" stroke-width="3" stroke-linecap="round" stroke-linejoin="round"/>
    <path d="M18.75 13.125L14.0625 17.8125" stroke="white" stroke-width="3" stroke-linecap="round" stroke-linejoin="round"/>
  </symbol>

  <symbol id="icon__cup" width="50" height="50" viewBox="0 0 50 50" fill="none" xmlns="http://www.w3.org/2000/svg">
    <g>
      <path id="Vector" d="M21.0937 33.0781V45.5781L13.6719 40.8906L6.25 45.5781V33.0781" fill="#F10132" fill-opacity="0.25"/>
      <g id="Union">
        <path d="M39.0625 40.8906H24.6094V45.5781H39.0625V40.8906Z" fill="white"/>
        <path d="M23.4434 30.1743C25.4451 32.4364 28.3721 33.8594 31.6406 33.8594C37.6953 33.8594 42.5781 28.9766 42.5781 22.9219V4.17188H20.7031V14.3273C18.7445 12.8561 16.31 11.9844 13.6719 11.9844C7.19979 11.9844 1.95312 17.231 1.95312 23.7031C1.95312 30.1752 7.19979 35.4219 13.6719 35.4219C17.7518 35.4219 21.3448 33.3369 23.4434 30.1743Z" fill="white"/>
      </g>
      <g id="Union_2">
        <path fill-rule="evenodd" clip-rule="evenodd" d="M20.0312 4.17188C20.0312 3.78395 20.3152 3.5 20.7031 3.5H42.5781C42.966 3.5 43.25 3.78395 43.25 4.17188V7.40625H48.4375C48.8254 7.40625 49.1094 7.69021 49.1094 8.07812V16.9062C49.1094 20.1301 46.7164 22.8186 43.6297 23.327L43.2411 23.391L43.2123 23.7837C42.8002 29.4028 38.379 33.9705 32.766 34.4944L32.3125 34.5367V40.2188H39.0625C39.4504 40.2188 39.7344 40.5027 39.7344 40.8906V45.5781C39.7344 45.966 39.4504 46.25 39.0625 46.25H25.7812C25.3933 46.25 25.1094 45.966 25.1094 45.5781C25.1094 45.1902 25.3933 44.9063 25.7812 44.9063H38.3906V41.5625H25.7812C25.3933 41.5625 25.1094 41.2785 25.1094 40.8906C25.1094 40.5027 25.3933 40.2188 25.7812 40.2188H31.0078V34.4864L30.5422 34.4543C29.4655 34.3801 28.3847 34.1195 27.3762 33.7086L27.3631 33.7037C27.0159 33.5735 26.8514 33.1752 26.9878 32.8342L26.9916 32.824C27.1215 32.4776 27.5184 32.313 27.8588 32.4477C29.0535 32.9415 30.3286 33.1875 31.6406 33.1875C37.3074 33.1875 41.9062 28.5886 41.9062 22.9219V4.84375H21.375V8.07812C21.375 8.46604 21.091 8.75 20.7031 8.75H14.8438C14.4558 8.75 14.1719 8.46604 14.1719 8.07812C14.1719 7.69021 14.4558 7.40625 14.8438 7.40625H20.0312V4.17188ZM47.7656 8.75H43.25V22.0388L43.8713 21.8835C46.1228 21.3206 47.7656 19.2865 47.7656 16.8672V8.75Z" fill="black"/>
        <path fill-rule="evenodd" clip-rule="evenodd" d="M1.28125 23.7031C1.28125 16.8699 6.83864 11.3125 13.6719 11.3125C20.5051 11.3125 26.0625 16.8699 26.0625 23.7031C26.0625 27.3801 24.4501 30.6475 21.929 32.9428L21.7656 33.0915V45.5781C21.7656 45.8224 21.6347 46.0377 21.417 46.1465L21.3767 46.1667L21.3406 46.1937C21.3036 46.2215 21.2305 46.25 21.0938 46.25C20.9835 46.25 20.8792 46.2172 20.7307 46.1288L13.6719 41.6663L6.60774 46.1319L6.59765 46.1387C6.41883 46.2579 6.18377 46.2751 5.92673 46.1465C5.70901 46.0377 5.57812 45.8224 5.57812 45.5781V36.9844C5.57812 36.5965 5.86208 36.3125 6.25 36.3125C6.63792 36.3125 6.92188 36.5965 6.92188 36.9844V44.3815L13.3094 40.3006C13.5391 40.1652 13.8057 40.1654 14.0353 40.3012L20.4219 44.3371V34.0893L19.6728 34.5196C17.9136 35.5302 15.8512 36.0938 13.6719 36.0938C6.83864 36.0938 1.28125 30.5364 1.28125 23.7031ZM13.6719 12.6562C7.57542 12.6562 2.625 17.6067 2.625 23.7031C2.625 29.7996 7.57542 34.75 13.6719 34.75C19.7683 34.75 24.7188 29.7996 24.7188 23.7031C24.7188 17.6067 19.7683 12.6562 13.6719 12.6562Z" fill="black"/>
      </g>
    </g>
  </symbol>

  <symbol id="icon__girl" width="50" height="50" viewBox="0 0 50 50" fill="none" xmlns="http://www.w3.org/2000/svg">
    <g>
      <g id="Union">
        <path d="M25 0.390625C30.2344 0.390625 35.1562 2.53906 38.9453 6.36719C42.6562 10.1953 44.7266 15.1953 44.7656 20.4688C44.7656 20.7813 44.6094 21.0547 44.4141 21.2891C44.2187 21.5234 43.9062 21.6406 43.5937 21.6406H39.6484C39.1461 21.6406 37.721 21.8054 35.9179 22.0139C35.758 22.0324 35.5952 22.0512 35.4297 22.0703L35.2975 22.0852C30.4432 22.6334 22.6299 23.5156 15.4687 23.5156C12.9297 23.5156 10.4687 23.3984 8.24218 23.125C6.4453 22.8906 5.11718 21.2109 5.35155 19.4141C6.60155 8.94531 15.4297 0.390625 25 0.390625Z" fill="#F10132" fill-opacity="0.25"/>
        <path d="M6.36719 23.5938H43.6328C44.2578 23.5938 44.8047 24.1406 44.7656 24.7656V33.5937C44.7656 38.5547 40.7422 42.5781 35.7813 42.5781H14.1797C9.21875 42.5781 5.19531 38.5547 5.19531 33.5937V24.7656C5.19531 24.1016 5.70313 23.5938 6.36719 23.5938Z" fill="#F10132" fill-opacity="0.25"/>
      </g>
      <path id="Union_2" d="M45.3125 24.8047C45.4297 23.4765 44.7266 22.2656 43.6328 21.6406L43.6328 21.6015H43.5938C40.8594 21.6015 38.4766 19.8437 37.6563 17.2265C36.0938 12.2656 33.1641 8.71091 29.2188 12.3047C28.1805 13.246 27.2649 14.2561 26.3485 15.267C24.679 17.1086 23.007 18.9531 20.5859 20.3906C17.791 22.0411 14.4753 21.6583 11.6378 21.3307C9.4388 21.0768 7.52694 20.8561 6.36719 21.6406C5.35156 22.2265 4.6875 23.3203 4.6875 24.5703C4.6875 26.4843 6.32813 27.9687 8.20313 27.9687H10.4297C11.942 35.0622 16.1428 41.1599 23.1544 42.0703H21.4844C21.4844 45.5859 18.6328 48.4375 15.1172 48.4375V49.6094H35.6641V48.4375C32.1484 48.4375 29.2969 45.5859 29.2969 42.0703H26.8455C33.8574 41.1597 38.0611 35.0591 39.6094 27.9297H41.8359C43.6328 27.9297 45.1953 26.6015 45.3125 24.8047Z" fill="white"/>
      <g id="Union_3">
        <path d="M28.7371 11.8523C28.9984 11.6136 29.424 11.6315 29.6705 11.9004C29.9099 12.1617 29.8915 12.5885 29.6224 12.8352C28.6315 13.7468 27.722 14.6961 26.8159 15.7201L26.698 15.8488C25.0134 17.6873 23.3244 19.5304 20.8784 20.9758L20.8728 20.9792C19.184 22.0072 17.2554 22.3125 15.3906 22.3125C14.224 22.3125 13.0873 22.189 12.0664 22.078C11.9555 22.066 11.846 22.0541 11.7379 22.0425C11.3808 21.9957 11.1175 21.6538 11.1602 21.3121C11.2051 20.953 11.5481 20.6877 11.8911 20.7306L12.0257 20.7454C14.4679 21.013 17.6694 21.3639 20.2172 19.8435L20.2193 19.8422C22.5252 18.4507 24.1215 16.7057 25.7721 14.9014L25.8377 14.8298L25.8432 14.8235C26.7319 13.8189 27.6966 12.8158 28.7371 11.8523Z" fill="black"/>
        <path d="M18.8926 46.3061C19.1538 46.0666 19.58 46.0844 19.8267 46.3535C20.0662 46.6148 20.0485 47.041 19.7793 47.2877L19.7742 47.2925C18.5052 48.489 16.8332 49.1094 15.1172 49.1094C14.7293 49.1094 14.4453 48.8255 14.4453 48.4376C14.4453 48.0496 14.7293 47.7657 15.1172 47.7657C16.5298 47.7657 17.8617 47.251 18.8926 46.3061Z" fill="black"/>
        <path d="M4.6875 23.9375C4.29958 23.9375 4.01562 24.2215 4.01562 24.6094C4.01562 26.7773 5.92254 28.6396 8.20119 28.6406H8.20312C9.20705 28.6406 10.0219 29.2551 10.3205 30.201L10.3231 30.2091C12.7379 38.3351 18.0879 42.8594 25 42.8594H25.011C26.2733 42.8585 27.4835 42.7067 28.6332 42.4095C28.8124 46.1188 31.9133 49.1094 35.6641 49.1094C36.0238 49.1094 36.3359 48.8147 36.3359 48.4375C36.3359 48.0496 36.052 47.7656 35.6641 47.7656C32.5364 47.7656 29.9688 45.198 29.9688 42.0703C29.9688 42.0432 29.9674 42.0165 29.9646 41.9905C34.452 40.3152 37.8785 36.261 39.677 30.2091L39.6793 30.2013L39.6819 30.1934C39.979 29.3022 40.8201 28.6454 41.7863 28.6407L41.7969 28.6407C44.0057 28.6407 45.8098 26.9974 45.9856 24.8865C46.0061 24.5208 45.7291 24.1928 45.3613 24.1711L45.3594 24.171C44.992 24.148 44.6615 24.4258 44.6398 24.7951L44.6391 24.8062L44.638 24.8172C44.4933 26.216 43.2553 27.2914 41.8081 27.297L41.7969 27.2969C40.2221 27.2969 38.8544 28.3224 38.4092 29.8292L38.4088 29.8307C37.8914 31.5618 36.7825 34.4672 34.6888 36.9484C32.5841 39.4427 29.4747 41.5156 25 41.5156C20.5253 41.5156 17.4159 39.4427 15.3112 36.9484C13.2175 34.4672 12.1086 31.5618 11.5912 29.8307L11.5908 29.8292C11.1456 28.3224 9.77793 27.2969 8.20312 27.2969C8.12792 27.2969 8.05663 27.3075 7.99056 27.3276C6.57519 27.2163 5.35938 26.0094 5.35938 24.6094C5.35938 24.2215 5.07542 23.9375 4.6875 23.9375Z" fill="black"/>
      </g>
    </g>
  </symbol>

  <symbol id="icon_map" width="50" height="50" viewBox="0 0 50 50" fill="none" xmlns="http://www.w3.org/2000/svg">
    <path d="M46.4844 13.2813L39.1406 7.42187C37.6953 6.28906 35.7031 6.28906 34.2578 7.42187L29.1016 11.5625C27.7344 12.6563 25.9766 13.2813 24.2188 13.2813H5.46875C4.375 13.2813 3.51562 14.1406 3.51562 15.2344V46.4844C3.51562 47.5781 4.375 48.4375 5.46875 48.4375H24.2188C25.9766 48.4375 27.6953 47.8516 29.1016 46.7188L34.2969 42.5781C35.7422 41.4453 37.7344 41.4453 39.1797 42.5781L46.5234 48.4375V13.2813H46.4844Z" fill="white"/>
    <path d="M28.7033 11.0604L33.9041 6.91545C35.5991 5.57401 37.957 5.57782 39.6075 6.91225L39.61 6.91427L46.9462 12.7676C47.1158 12.9155 47.1953 13.0919 47.1953 13.2812V48.4375C47.1953 48.6935 47.0519 48.9152 46.8252 49.0359C46.5604 49.1368 46.2896 49.1412 46.0623 48.9517L38.7126 43.0876L38.7117 43.0869C37.5177 42.1232 35.8474 42.1145 34.6818 43.0909L29.5345 47.2633C29.2342 47.4906 28.8118 47.4322 28.5994 47.1561C28.3682 46.8555 28.4258 46.4301 28.7033 46.2167L33.9048 42.0711C35.5998 40.7298 37.957 40.7341 39.6075 42.0685L39.6098 42.0704L45.8515 47.0548V13.5872L38.7516 7.93133L38.7503 7.93027C37.5566 6.96712 35.8871 6.95834 34.7216 7.93392L29.5351 12.1065C29.2348 12.3344 28.812 12.2762 28.5994 11.9998C28.3682 11.6993 28.4258 11.2739 28.7033 11.0604Z" fill="black"/>
    <path d="M2.84375 15.2344C2.84375 13.7918 4.02614 12.6094 5.46875 12.6094H24.2188C24.6067 12.6094 24.8906 12.8933 24.8906 13.2812C24.8906 13.6692 24.6067 13.9531 24.2188 13.9531H5.46875C4.76292 13.9531 4.1875 14.5285 4.1875 15.2344V46.4844C4.1875 47.1902 4.76292 47.7656 5.46875 47.7656H24.2188C24.6067 47.7656 24.8906 48.0496 24.8906 48.4375C24.8906 48.8146 24.5785 49.1094 24.2188 49.1094H5.46875C4.02614 49.1094 2.84375 47.927 2.84375 46.4844V15.2344Z" fill="black"/>
    <path d="M31.5234 14.6094C30.4297 15.4687 29.2187 16.1328 27.9297 16.5625C27.4219 17.1875 26.9531 17.9297 26.6015 18.9062C25.8984 20.7422 27.8515 25.7812 30.2344 25.7812C32.1792 25.7812 33.4708 23.2498 34.3837 21.4606C34.8826 20.4827 35.2684 19.7266 35.5859 19.7266C35.9713 19.7266 36.4919 20.5209 37.1033 21.4537C37.4214 21.939 37.7641 22.4618 38.125 22.9297C38.8281 23.8672 39.9219 24.375 41.0937 24.375H42.5781V15.7031C42.5781 15.3516 42.4219 15 42.1484 14.8047L37.4609 11.0547C37.0312 10.7031 36.4062 10.7031 36.0156 11.0547L31.5234 14.6094Z" fill="#F10132" fill-opacity="0.25"/>
    <path d="M21.1151 30.3717C21.6332 30.2289 22.2981 30.0457 22.8125 29.5313C22.8125 29.5313 23.9062 27.4219 25.9765 28.1641C28.1138 28.9813 27.798 29.2674 26.4739 30.4671C26.1523 30.7585 25.7713 31.1037 25.3515 31.5235C24.4171 32.4579 24.2216 32.8677 24.1062 33.1095C23.9563 33.4238 23.9416 33.4547 22.6172 33.9844C21.0679 34.6041 20.9694 33.756 20.8551 32.7714C20.7964 32.2664 20.7336 31.7254 20.4687 31.3282C20.0304 30.6707 20.4528 30.5542 21.1151 30.3717Z" fill="#F10132" fill-opacity="0.25"/>
    <path d="M35.7812 36.1328C33.8672 37.0312 28.125 32.3828 29.2187 30.8594C29.825 30.0231 30.8566 30.2387 31.9061 30.458C32.8174 30.6484 33.7423 30.8417 34.414 30.3515C39.6093 26.8359 41.1328 29.1015 41.1328 30.2734C41.1328 31.4453 39.0234 34.6094 35.7812 36.1328Z" fill="#F10132" fill-opacity="0.25"/>
    <path d="M19.5313 23.7109C20.1563 24.8437 19.8047 26.7578 18.5547 28.0078C18.25 28.3032 17.9018 28.5943 17.5501 28.8882C16.4136 29.8379 15.2415 30.8174 15.3906 32.0703C15.4368 32.4859 15.9572 32.7991 16.6241 33.2006C18.2139 34.1575 20.6364 35.6157 19.4531 40.1562C19.2266 41.0247 18.7445 41.8566 18.3245 42.5815C18.31 42.6065 18.2956 42.6314 18.2813 42.6562C17.9297 43.2812 17.4219 43.8672 16.7969 44.2969L16.4453 44.5312H8.59375C7.92969 44.5312 7.42188 44.0234 7.42188 43.3594V32.5C8.08594 32.539 8.75 32.3437 9.21875 31.875C10.4297 30.664 11.8359 28.2422 12.1094 25.8984C12.5781 21.9531 17.4609 20 19.5313 23.7109Z" fill="#F10132" fill-opacity="0.25"/>
  </symbol>

  <symbol id="icon__phone" width="30" height="30" viewBox="0 0 30 30" fill="none" xmlns="http://www.w3.org/2000/svg">
    <g>
      <path id="Vector" d="M21.0937 29.0625H8.90625C7.61719 29.0625 6.5625 28.0078 6.5625 26.7188V3.28125C6.5625 1.99219 7.61719 0.9375 8.90625 0.9375H21.0937C22.3828 0.9375 23.4375 1.99219 23.4375 3.28125V26.7188C23.4375 28.0078 22.3828 29.0625 21.0937 29.0625Z" fill="#F10132" fill-opacity="0.25"/>
      <path id="Vector_2" d="M7.96875 14.4375C7.57031 14.4375 7.26562 14.1328 7.26562 13.7344V3.28125C7.26562 2.36719 7.99219 1.64062 8.90625 1.64062C9.30469 1.64062 9.60938 1.94531 9.60938 2.34375C9.60938 2.74219 9.30469 3.04688 8.90625 3.04688C8.76562 3.04688 8.67188 3.14062 8.67188 3.28125V13.7344C8.67188 14.1094 8.36719 14.4375 7.96875 14.4375ZM7.96875 23.5312C7.57031 23.5312 7.26562 23.2266 7.26562 22.8281V21.8438C7.26562 21.4453 7.57031 21.1406 7.96875 21.1406C8.36719 21.1406 8.67188 21.4453 8.67188 21.8438V22.8281C8.67188 23.2266 8.36719 23.5312 7.96875 23.5312Z" fill="white"/>
      <path id="Vector_3" d="M21.0937 0.234375H8.90625C7.21875 0.234375 5.85938 1.59375 5.85938 3.28125V26.7188C5.85938 28.4062 7.21875 29.7656 8.90625 29.7656H21.0937C22.7812 29.7656 24.1406 28.4062 24.1406 26.7188V3.28125C24.1406 1.59375 22.7812 0.234375 21.0937 0.234375ZM22.7344 26.7188C22.7344 27.6328 22.0078 28.3594 21.0937 28.3594H8.90625C7.99219 28.3594 7.26562 27.6328 7.26562 26.7188V3.28125C7.26562 2.36719 7.99219 1.64062 8.90625 1.64062H10.7812V2.34375C10.7812 2.74219 11.0859 3.04688 11.4844 3.04688H18.5156C18.9141 3.04688 19.2187 2.74219 19.2187 2.34375V1.64062H21.0937C22.0078 1.64062 22.7344 2.36719 22.7344 3.28125V26.7188Z" fill="black"/>
    </g>
  </symbol>

  <symbol id="icon__plus" width="50" height="50" viewBox="0 0 50 50" fill="none" xmlns="http://www.w3.org/2000/svg">
    <g>
      <path id="Vector" d="M6.21875 25C6.21875 14.6274 14.6274 6.21875 25 6.21875C35.3726 6.21875 43.7812 14.6274 43.7812 25C43.7812 35.3726 35.3726 43.7812 25 43.7812C14.6274 43.7812 6.21875 35.3726 6.21875 25Z" fill="white" stroke="black" stroke-width="1.5"/>
      <path id="Union" d="M23.8281 30.8594C23.8281 31.5234 24.3359 32.0312 25 32.0312C25.6641 32.0312 26.1719 31.5234 26.1719 30.8594V26.1719H30.8594C31.5234 26.1719 32.0312 25.6641 32.0312 25C32.0312 24.3359 31.5234 23.8281 30.8594 23.8281H26.1719V19.1406C26.1719 18.4766 25.6641 17.9688 25 17.9688C24.3359 17.9688 23.8281 18.4766 23.8281 19.1406V23.8281H19.1406C18.4766 23.8281 17.9688 24.3359 17.9688 25C17.9688 25.6641 18.4766 26.1719 19.1406 26.1719H23.8281V30.8594Z" fill="#F10132"/>
    </g>
  </symbol>

  <symbol id="icon__podium" width="50" height="50" viewBox="0 0 50 50" fill="none" xmlns="http://www.w3.org/2000/svg">
    <path d="M34.7656 13.2812H15.2344V25H3.51562V44.5312H46.4844V32.8125H34.7656V13.2812Z" fill="#F10132" fill-opacity="0.12"/>
    <path d="M19.1406 13.2812H15.2344V44.5312H19.1406V13.2812Z" fill="white"/>
    <path d="M6.25 25H3.51562V44.5312H6.25V25Z" fill="white"/>
    <path d="M34.7656 13.2812H30.8594V44.5312H38.6719V32.8125H34.7656V13.2812Z" fill="#F10132" fill-opacity="0.12"/>
    <path d="M11.3281 25H15.2344V44.5312H11.3281V25Z" fill="#F10132" fill-opacity="0.12"/>
    <path d="M14.5625 13.2812C14.5625 12.9102 14.8633 12.6094 15.2344 12.6094H34.7656C35.1367 12.6094 35.4375 12.9102 35.4375 13.2812V43.3594C35.4375 43.6355 35.6614 43.8594 35.9375 43.8594H45.3125C45.5886 43.8594 45.8125 43.6355 45.8125 43.3594V33.9844C45.8125 33.7082 45.5886 33.4844 45.3125 33.4844H38.6719C38.3008 33.4844 38 33.1836 38 32.8125C38 32.4414 38.3008 32.1406 38.6719 32.1406H46.4844C46.8554 32.1406 47.1562 32.4414 47.1562 32.8125V43.3594C47.1562 43.6355 47.3801 43.8594 47.6562 43.8594H48.4375C48.8086 43.8594 49.1094 44.1602 49.1094 44.5312C49.1094 44.9023 48.8086 45.2031 48.4375 45.2031H1.5625C1.19143 45.2031 0.890625 44.9023 0.890625 44.5312C0.890625 44.1602 1.19143 43.8594 1.5625 43.8594H2.34375C2.61989 43.8594 2.84375 43.6355 2.84375 43.3594V25C2.84375 24.6289 3.14456 24.3281 3.51562 24.3281H11.3281C11.6992 24.3281 12 24.6289 12 25C12 25.3711 11.6992 25.6719 11.3281 25.6719H4.6875C4.41136 25.6719 4.1875 25.8957 4.1875 26.1719V43.3594C4.1875 43.6355 4.41136 43.8594 4.6875 43.8594H33.5938C33.8699 43.8594 34.0938 43.6355 34.0938 43.3594V14.4531C34.0938 14.177 33.8699 13.9531 33.5938 13.9531H16.4062C16.1301 13.9531 15.9062 14.177 15.9062 14.4531V36.7188C15.9062 37.0898 15.6054 37.3906 15.2344 37.3906C14.8633 37.3906 14.5625 37.0898 14.5625 36.7188V13.2812Z" fill="black"/>
    <path d="M24.3281 28.5547C24.3281 28.1858 24.5717 27.8971 24.8695 27.8328C25.289 27.7451 25.6718 28.0794 25.6718 28.4766V33.9453C25.6718 34.4209 25.2884 34.7163 24.8686 34.6279L24.8525 34.6245L24.8363 34.6222C24.5835 34.5861 24.3281 34.2949 24.3281 33.9453V31.1406H23.0859C22.722 31.1406 22.4361 30.9035 22.3668 30.6112C22.304 30.1643 22.6307 29.7969 23.0468 29.7969H23.0859C23.7354 29.7969 24.3281 29.2775 24.3281 28.5547Z" fill="black"/>
  </symbol>

  <symbol id="icon__prize" width="50" height="50" viewBox="0 0 50 50" fill="none" xmlns="http://www.w3.org/2000/svg">
    <path d="M29.0625 17.5L28.0469 20.1172L21.1328 17.6172L11.6406 43.75C14.4141 42.4609 17.6953 43.6719 18.9844 46.4062L25.1172 29.5312L31.2109 46.2891C32.5 43.5156 35.7812 42.3437 38.5547 43.6328L29.0625 17.5Z" fill="white"/>
    <path d="M28.8084 16.8744C29.1764 16.7364 29.534 16.9195 29.6399 17.2585L29.8781 21.7676L28.3993 17.7191L28.3978 17.7151C28.2598 17.347 28.4429 16.9894 28.7819 16.8835L28.7953 16.8793L28.8084 16.8744Z" fill="black"/>
    <path d="M29.8786 21.769L29.6399 17.2585L29.6434 17.2697L39.1786 43.4131C39.2669 43.6563 39.1974 43.9464 39.0038 44.1185C38.7998 44.2997 38.504 44.3453 38.2554 44.233C35.8189 43.1031 32.9442 44.148 31.8121 46.5863L31.8031 46.6058L31.7957 46.626C31.7195 46.8355 31.4951 46.9988 31.2138 47L31.0487 43.879L31.358 44.7238L31.9109 44.1867C33.1728 42.9608 34.9084 42.3432 36.6882 42.4522L37.4504 42.4988L29.8786 21.769Z" fill="black"/>
    <path d="M31.0456 43.8707L29.8781 21.7676L29.8786 21.769L31.0487 43.879L31.0456 43.8707Z" fill="black"/>
    <path d="M31.0456 43.8707L31.2109 47L31.1949 47C30.8949 46.969 30.6713 46.7994 30.5917 46.5605L27.8139 38.8922L27.8119 38.8869C27.6739 38.5189 27.857 38.1613 28.196 38.0553C28.6091 37.9262 28.9563 38.1178 29.054 38.4304L29.0576 38.4419L31.0456 43.8707Z" fill="black"/>
    <path fill-rule="evenodd" clip-rule="evenodd" d="M20.9001 17.0221C21.0838 16.9434 21.2606 16.9296 21.426 16.9916L28.7307 19.6479L28.7328 19.6486C29.117 19.7939 29.2662 20.1759 29.1452 20.4784L29.1423 20.4855L19.6083 46.626C19.5251 46.8546 19.2808 47.0476 19 47.0781H18.9844C18.7239 47.0781 18.4989 46.9296 18.3797 46.696C17.2452 44.2631 14.374 43.2215 11.94 44.3502C11.6914 44.4625 11.3955 44.417 11.1916 44.2357C10.998 44.0637 10.9286 43.7733 11.0168 43.5303L20.5428 17.4119C20.6338 17.2048 20.7507 17.0787 20.8787 17.0307L20.8895 17.0266L20.9001 17.0221ZM27.6331 20.6776L21.5371 18.4609L12.7625 42.5703H13.9453C14.677 42.5703 15.3985 42.6802 16.0771 42.9302L16.0858 42.9332C16.9153 43.2218 17.6703 43.6899 18.2793 44.2989L18.8343 44.8539L27.6331 20.6776Z" fill="black"/>
    <path d="M40.3906 17.8516L38.9453 15.7422C38.789 15.5469 38.7109 15.3126 38.7109 15.0391L38.6328 12.5001C38.5937 11.0157 37.6172 9.68755 36.2109 9.17974L33.8281 8.32036C33.5937 8.24224 33.3984 8.08599 33.2422 7.89068L31.6797 5.85943C30.7812 4.68755 29.2187 4.17974 27.7734 4.60943L25.3516 5.31255C25.1172 5.39068 24.8437 5.39068 24.6094 5.31255L22.1875 4.60943C20.7422 4.17974 19.1797 4.68755 18.2812 5.85943L16.7187 7.89068C16.5625 8.08599 16.3672 8.24224 16.1328 8.32036L13.75 9.17974C12.3437 9.68755 11.3672 11.0157 11.3281 12.5001L11.25 15.0391C11.25 15.2735 11.1719 15.5079 11.0156 15.7422L9.57031 17.8516C8.71094 19.0626 8.71094 20.7422 9.57031 21.9532L11.0156 24.0626C11.1719 24.2579 11.25 24.4922 11.25 24.7657L11.3281 27.3047C11.3672 28.7891 12.3437 30.1172 13.75 30.6251L16.1328 31.4844C16.3672 31.5626 16.5625 31.7188 16.7187 31.9141L18.2812 33.9454C18.9844 34.8438 20.0781 35.3516 21.1719 35.3516C21.5234 35.3516 21.8359 35.3126 22.1875 35.1954L24.6094 34.4922C24.8437 34.4141 25.1172 34.4141 25.3516 34.4922L27.7734 35.1954C29.2187 35.6251 30.7812 35.1172 31.6797 33.9454L33.2422 31.9141C33.3984 31.7188 33.5937 31.5626 33.8281 31.4844L36.2109 30.6251C37.6172 30.1172 38.5937 28.7891 38.6328 27.3047L38.7109 24.7657C38.7109 24.5313 38.7891 24.2969 38.9453 24.0626L40.3906 21.9532C41.2109 20.7422 41.2109 19.1016 40.3906 17.8516L40.3906 17.8516Z" fill="#FBBFCC"/>
    <path d="M25 12.8906C21.1328 12.8906 17.9688 16.0547 17.9688 19.9219C17.9688 23.7891 21.1328 26.9531 25 26.9531C28.8672 26.9531 32.0312 23.7891 32.0312 19.9219C32.0312 16.0547 28.8672 12.8906 25 12.8906Z" fill="white"/>
    <path fill-rule="evenodd" clip-rule="evenodd" d="M25 17.2969C24.6121 17.2969 24.3281 17.5808 24.3281 17.9688V21.875C24.3281 22.2629 24.6121 22.5469 25 22.5469C25.3879 22.5469 25.6719 22.2629 25.6719 21.875V17.9688C25.6719 17.5808 25.3879 17.2969 25 17.2969Z" fill="black"/>
  </symbol>

  <symbol id="icon__sale" width="76" height="75" viewBox="0 0 76 75" fill="none" xmlns="http://www.w3.org/2000/svg">
    <g>
      <path id="Vector" d="M41.0469 9.14051L43.8008 6.79676C46.4375 4.5116 50.5977 5.85926 51.418 9.25769L52.2383 12.7733C52.7656 14.9999 54.875 16.5233 57.1602 16.3475L60.7344 16.0546C64.25 15.7616 66.7695 19.2772 65.4219 22.4999L64.0742 25.8397C63.1953 27.9491 64.0156 30.41 65.9492 31.6405L68.9961 33.5155C71.9844 35.3319 71.9844 39.6679 68.9961 41.4843L65.9492 43.3593C63.957 44.5897 63.1953 46.9921 64.0742 49.16L65.4219 52.4999C66.7695 55.7225 64.1914 59.2382 60.7344 58.9452L57.1602 58.6522C54.875 58.4764 52.7656 59.9999 52.2383 62.2264L51.418 65.7421C50.5977 69.1405 46.4961 70.4882 43.8008 68.203L41.0469 65.8593C39.2891 64.3358 36.7109 64.3358 34.9531 65.8593L32.1992 68.203C29.5625 70.4882 25.4023 69.1405 24.582 65.7421L23.7617 62.2264C23.2344 59.9999 21.125 58.4764 18.8398 58.6522L15.2656 58.9452C11.75 59.2382 9.23047 55.7225 10.5781 52.4999L11.9258 49.16C12.8047 47.0507 11.9844 44.5897 10.0508 43.3593L7.00391 41.4843C4.01562 39.6679 4.01562 35.3319 7.00391 33.5155L10.0508 31.6405C12.043 30.41 12.8047 28.0077 11.9258 25.8397L10.5781 22.4999C9.23047 19.2772 11.8086 15.7616 15.2656 16.0546L18.8398 16.3475C21.125 16.5233 23.2344 14.9999 23.7617 12.7733L24.582 9.2577C25.4023 5.85927 29.5039 4.51161 32.1992 6.79677L34.9531 9.14052C36.7109 10.6054 39.2891 10.6054 41.0469 9.14052L41.0469 9.14051Z" fill="white"/>
      <g id="Union">
        <path fill-rule="evenodd" clip-rule="evenodd" d="M24.9922 29.8828C24.9922 26.9056 27.4056 24.4922 30.3828 24.4922C33.36 24.4922 35.7734 26.9056 35.7734 29.8828C35.7734 32.86 33.36 35.2734 30.3828 35.2734C27.4056 35.2734 24.9922 32.86 24.9922 29.8828ZM30.3828 28.2422C29.4767 28.2422 28.7422 28.9767 28.7422 29.8828C28.7422 30.7889 29.4767 31.5234 30.3828 31.5234C31.2889 31.5234 32.0234 30.7889 32.0234 29.8828C32.0234 28.9767 31.2889 28.2422 30.3828 28.2422Z" fill="black"/>
        <path fill-rule="evenodd" clip-rule="evenodd" d="M40.2266 45.1172C40.2266 42.14 42.64 39.7266 45.6172 39.7266C48.5944 39.7266 51.0078 42.14 51.0078 45.1172C51.0078 48.0944 48.5944 50.5078 45.6172 50.5078C42.64 50.5078 40.2266 48.0944 40.2266 45.1172ZM45.6172 43.4766C44.7111 43.4766 43.9766 44.2111 43.9766 45.1172C43.9766 46.0233 44.7111 46.7578 45.6172 46.7578C46.5233 46.7578 47.2578 46.0233 47.2578 45.1172C47.2578 44.2111 46.5233 43.4766 45.6172 43.4766Z" fill="black"/>
        <path d="M32.7266 43.418C33.0781 43.7696 33.4883 43.8868 33.8984 43.8868C34.3672 43.8868 34.8945 43.711 35.1875 43.2423L48.0781 28.6524C48.7227 27.9493 48.6055 26.836 47.9023 26.1915C47.1992 25.547 46.0859 25.6641 45.4414 26.3673L32.5508 40.9571C31.9062 41.6602 32.0234 42.7735 32.7266 43.418Z" fill="black"/>
        <path d="M27.4531 47.461C27.4531 46.4902 28.2401 45.7032 29.2109 45.7032C30.1818 45.7032 30.9688 46.4902 30.9688 47.461C30.9688 48.4318 30.1818 49.2188 29.2109 49.2188C28.2401 49.2188 27.4531 48.4318 27.4531 47.461Z" fill="black"/>
      </g>
      <path id="Union_2" d="M27.877 6.1194C29.3288 5.69241 30.8587 5.95205 32.088 7.00467L34.8269 9.33578L34.8299 9.33824C35.7642 10.1157 36.8852 10.5083 37.9999 10.5256C39.1147 10.5083 40.2362 10.1153 41.1704 9.33785L41.1729 9.33578L43.9119 7.00467C45.1412 5.95205 46.6711 5.69241 48.1228 6.1194C49.6918 6.58087 50.7499 7.86463 51.0939 9.32698L51.9122 12.8338C52.5034 15.2289 54.6553 16.7879 57.079 16.6096L57.081 16.6094L60.7413 16.3147C62.2511 16.2308 63.7063 16.8286 64.6233 18.1124C65.468 19.295 65.7759 20.8951 65.1381 22.3759L63.7896 25.7174C62.8542 27.9446 63.6857 30.509 65.7783 31.8324L68.8111 33.6988C70.1475 34.5043 70.9379 35.9335 70.9379 37.4999C70.9379 39.0662 70.1475 40.4955 68.8111 41.301L68.8078 41.303L65.7783 43.1674C63.6857 44.4907 62.8542 47.0552 63.7896 49.2823L63.7978 49.3018L65.1381 52.6239C65.7759 54.1046 65.468 55.7047 64.6233 56.8874C63.7224 58.1486 62.2313 58.768 60.7039 58.683L57.081 58.3903L57.079 58.3902C54.6553 58.2118 52.5034 59.7709 51.9122 62.166L51.0939 65.6728C50.7499 67.1351 49.6918 68.4189 48.1228 68.8804C46.6711 69.3073 45.1412 69.0477 43.9119 67.9951L41.1729 65.664L41.1704 65.6619C40.2362 64.8845 39.1147 64.4915 37.9999 64.4741C36.8852 64.4915 35.7642 64.8841 34.8299 65.6615L34.8269 65.664L32.088 67.9951C30.8587 69.0477 29.3288 69.3073 27.877 68.8804C26.3081 68.4189 25.2503 67.1365 24.9063 65.6741L24.0877 62.166C23.4964 59.7709 21.3451 58.2118 18.9214 58.3902L18.9188 58.3903L15.2959 58.6828C13.7717 58.7772 12.2734 58.1429 11.3766 56.8874C10.5318 55.7047 10.2239 54.1046 10.8618 52.6239L12.2062 49.2921C13.146 47.054 12.2566 44.4544 10.2216 43.1674L7.19208 41.303L7.18873 41.301C5.85236 40.4955 5.06201 39.0662 5.06201 37.4999C5.06201 35.9335 5.85236 34.5043 7.18873 33.6988L7.19208 33.6968L10.2216 31.8324C12.2566 30.5454 13.146 27.9458 12.2062 25.7077L10.8618 22.3759C10.2239 20.8951 10.5318 19.295 11.3766 18.1124C12.2935 16.8286 13.7488 16.2308 15.2585 16.3147L18.9188 16.6094L18.9214 16.6096C21.3451 16.788 23.4964 15.2289 24.0877 12.8338L24.9063 9.32562C25.2503 7.86328 26.3081 6.58086 27.877 6.1194Z" stroke="#F10132" stroke-width="1.5"/>
    </g>
  </symbol>

  <symbol id="icon__social_vk" width="30" height="30" viewBox="0 0 30 30" fill="none" xmlns="http://www.w3.org/2000/svg">
    <g>
      <path id="Vector" d="M23.605 17.3255C24.4639 17.9888 25.1957 18.802 25.7652 19.7258C26.4953 20.8759 24.9652 20.9759 24.9652 20.9759H22.0548C21.5321 21.0135 21.0135 20.8608 20.5946 20.5458C19.4945 19.8258 18.4444 17.9555 17.5943 18.1956C16.7442 18.4356 16.7942 20.1158 16.7942 20.1158C16.8162 20.321 16.7629 20.5271 16.6442 20.6959C16.473 20.8347 16.2638 20.9184 16.0441 20.9359H14.7739C13.7516 20.9274 12.7413 20.7152 11.8019 20.3116C10.8626 19.9081 10.0132 19.3213 9.30329 18.5856C6.52295 15.8153 4.03266 10.2846 4.03266 10.2846C4.03266 10.2846 3.93264 9.93459 4.08266 9.75456C4.23268 9.57454 4.73274 9.56454 4.73274 9.56454H7.84311C8.02087 9.59363 8.19095 9.65826 8.34317 9.75456C8.46838 9.85915 8.57054 9.98855 8.64321 10.1346C8.97187 10.9275 9.35621 11.6962 9.79334 12.4349C11.1035 14.6051 11.7036 15.1152 12.1536 14.8852C12.8037 14.5451 12.6037 11.8148 12.6037 11.8148C12.6324 11.3167 12.5288 10.8199 12.3036 10.3746C12.0387 10.0998 11.6837 9.92936 11.3035 9.89458C11.1235 9.89458 11.4335 9.49453 11.8036 9.31451C12.6978 9.04765 13.6338 8.9493 14.5639 9.02448C15.0883 9.00606 15.6128 9.05649 16.1241 9.1745C17.2042 9.42453 16.8242 10.4046 16.8242 12.7249C16.8242 13.465 16.6642 14.4851 17.2242 14.8352C17.4643 14.9852 18.0643 14.8352 19.5345 12.4849C20.002 11.7014 20.4066 10.882 20.7446 10.0346C20.8173 9.89977 20.92 9.78344 21.0447 9.69456C21.1849 9.62663 21.339 9.59238 21.4947 9.59455H24.8151C24.8151 9.59455 25.8153 9.45453 25.9753 9.88458C26.1353 10.3146 25.5152 11.3848 24.2151 13.105C21.9948 15.9253 21.7648 15.6953 23.605 17.3255Z" fill="black"/>
    </g>
  </symbol>

  <symbol id="icon__quotationMarks" width="50" height="33" viewBox="0 0 50 33" fill="none" xmlns="http://www.w3.org/2000/svg">
    <path d="M14.9367 0.496881C11.8424 -0.328251 8.74819 -0.121969 6.06652 1.52829C3.38484 2.97227 1.32201 5.44767 0.496881 8.33563C-1.35967 14.5241 2.14714 20.9189 8.33563 22.7754C11.6362 23.3943 13.4927 24.4257 13.699 25.2508C13.9053 26.076 13.2864 27.5199 9.57333 30.2016C8.95448 30.6142 8.33563 31.0267 7.71678 31.233C7.30422 31.4393 7.30422 31.8519 7.5105 32.2644C7.5105 32.4707 7.92306 32.677 8.12935 32.677C8.12935 32.677 8.33563 32.677 8.33563 32.4707C8.95448 32.2644 9.57333 31.8519 10.1922 31.4393H10.3985V31.233C16.3807 27.5199 20.7126 21.744 22.7754 14.9367C23.6006 11.8424 23.188 8.7482 21.744 6.06652C20.3 3.38484 17.8246 1.32201 14.9367 0.496881ZM41.7535 0.496881C35.565 -1.35966 29.1702 2.14714 27.3137 8.33563C25.4571 14.5241 28.9639 20.9189 35.1524 22.7754C38.4529 23.3943 40.3095 24.4257 40.5158 25.2508C40.722 26.076 40.1032 27.5199 36.3901 30.2016C35.7713 30.6142 35.1524 31.0267 34.5336 31.233C34.121 31.4393 34.121 31.8519 34.3273 32.2644C34.3273 32.4707 34.7398 32.677 34.9461 32.677C34.9461 32.677 35.1524 32.677 35.1524 32.4707C35.9775 32.2644 36.3901 31.8519 37.0089 31.4393H37.2152V31.233C43.1974 27.5199 47.5294 21.744 49.5922 14.9367C51.2425 8.74819 47.7357 2.35343 41.7535 0.496881Z" fill="#F10132" fill-opacity="0.25"/>
  </symbol>

  <symbol id="icon__cross" width="50" height="50" viewBox="0 0 50 50" fill="none" xmlns="http://www.w3.org/2000/svg">
    <g>
      <g id="Vector">
        <path d="M11.1888 11.1897C3.56154 18.8172 3.56176 31.1837 11.1893 38.811C18.8169 46.4383 31.1834 46.4381 38.8107 38.8106C46.438 31.183 46.4378 18.8165 38.8102 11.1892C31.1826 3.5619 18.8161 3.56212 11.1888 11.1897Z" fill="white"/>
        <path d="M11.7196 38.2807C4.38498 30.9463 4.38477 19.0547 11.7192 11.72C19.0536 4.38533 30.9452 4.38513 38.2799 11.7195C45.6145 19.0539 45.6147 30.9456 38.2803 38.2802C30.9459 45.6149 19.0543 45.6151 11.7196 38.2807Z" stroke="black" stroke-opacity="0.25" stroke-width="1.5"/>
      </g>
      <path id="Vector_2" d="M20.8594 30.3125C20.5469 30.3125 20.2734 30.1953 20.0391 29.9609C19.5703 29.4922 19.5703 28.75 20.0391 28.3203L28.3203 20.0391C28.7891 19.5703 29.5312 19.5703 29.9609 20.0391C30.4297 20.5078 30.4297 21.25 29.9609 21.6797L21.6797 29.9609C21.4453 30.1953 21.1719 30.3125 20.8594 30.3125V30.3125Z" fill="#F10132"/>
      <path id="Vector_3" d="M29.1406 30.3125C28.8281 30.3125 28.5547 30.1953 28.3203 29.9609L20.0391 21.6797C19.5703 21.2109 19.5703 20.4687 20.0391 20.0391C20.5078 19.5703 21.25 19.5703 21.6797 20.0391L29.9609 28.3203C30.4297 28.7891 30.4297 29.5312 29.9609 29.9609C29.7266 30.1953 29.4531 30.3125 29.1406 30.3125V30.3125Z" fill="#F10132"/>
    </g>
  </symbol>

  <symbol id="icon__vk" xmlns="http://www.w3.org/2000/svg" width="26" height="25" viewBox="0 0 26 25" fill="none">
    <path d="M22.105 15.3255C22.9639 15.9888 23.6957 16.802 24.2652 17.7258C24.9953 18.8759 23.4652 18.9759 23.4652 18.9759H20.5548C20.0321 19.0135 19.5135 18.8608 19.0946 18.5458C17.9945 17.8258 16.9444 15.9555 16.0943 16.1956C15.2442 16.4356 15.2942 18.1158 15.2942 18.1158C15.3162 18.321 15.2629 18.5271 15.1442 18.6959C14.973 18.8347 14.7638 18.9184 14.5441 18.9359H13.2739C12.2516 18.9274 11.2413 18.7152 10.3019 18.3116C9.36262 17.9081 8.51317 17.3213 7.80329 16.5856C5.02295 13.8153 2.53266 8.28463 2.53266 8.28463C2.53266 8.28463 2.43264 7.93459 2.58266 7.75456C2.73268 7.57454 3.23274 7.56454 3.23274 7.56454H6.34311C6.52087 7.59363 6.69095 7.65826 6.84317 7.75456C6.96838 7.85915 7.07054 7.98855 7.14321 8.13461C7.47187 8.92753 7.85621 9.6962 8.29334 10.4349C9.6035 12.6051 10.2036 13.1152 10.6536 12.8852C11.3037 12.5451 11.1037 9.81481 11.1037 9.81481C11.1324 9.3167 11.0288 8.81986 10.8036 8.37464C10.5387 8.09975 10.1837 7.92936 9.80352 7.89458C9.6235 7.89458 9.93354 7.49453 10.3036 7.31451C11.1978 7.04765 12.1338 6.9493 13.0639 7.02448C13.5883 7.00606 14.1128 7.05649 14.6241 7.1745C15.7042 7.42453 15.3242 8.40464 15.3242 10.7249C15.3242 11.465 15.1642 12.4851 15.7242 12.8352C15.9643 12.9852 16.5643 12.8352 18.0345 10.4849C18.502 9.70137 18.9066 8.88204 19.2446 8.0346C19.3173 7.89977 19.42 7.78344 19.5447 7.69456C19.6849 7.62663 19.839 7.59238 19.9947 7.59455H23.3151C23.3151 7.59455 24.3153 7.45453 24.4753 7.88458C24.6353 8.31463 24.0152 9.38476 22.7151 11.105C20.4948 13.9253 20.2648 13.6953 22.105 15.3255Z" fill="black"/>
  </symbol>



</svg>
