<svg width="50" height="50" viewBox="0 0 50 50" fill="none" xmlns="http://www.w3.org/2000/svg">
<g id="Frame">
<g id="Vector">
<path d="M11.1888 11.1897C3.56154 18.8172 3.56176 31.1837 11.1893 38.811C18.8169 46.4383 31.1834 46.4381 38.8107 38.8106C46.438 31.183 46.4378 18.8165 38.8102 11.1892C31.1826 3.5619 18.8161 3.56212 11.1888 11.1897Z" fill="white"/>
<path d="M11.7196 38.2807C4.38498 30.9463 4.38477 19.0547 11.7192 11.72C19.0536 4.38533 30.9452 4.38513 38.2799 11.7195C45.6145 19.0539 45.6147 30.9456 38.2803 38.2802C30.9459 45.6149 19.0543 45.6151 11.7196 38.2807Z" stroke="black" stroke-opacity="0.25" stroke-width="1.5"/>
</g>
<path id="Vector_2" d="M20.8594 30.3125C20.5469 30.3125 20.2734 30.1953 20.0391 29.9609C19.5703 29.4922 19.5703 28.75 20.0391 28.3203L28.3203 20.0391C28.7891 19.5703 29.5312 19.5703 29.9609 20.0391C30.4297 20.5078 30.4297 21.25 29.9609 21.6797L21.6797 29.9609C21.4453 30.1953 21.1719 30.3125 20.8594 30.3125V30.3125Z" fill="#F10132"/>
<path id="Vector_3" d="M29.1406 30.3125C28.8281 30.3125 28.5547 30.1953 28.3203 29.9609L20.0391 21.6797C19.5703 21.2109 19.5703 20.4687 20.0391 20.0391C20.5078 19.5703 21.25 19.5703 21.6797 20.0391L29.9609 28.3203C30.4297 28.7891 30.4297 29.5312 29.9609 29.9609C29.7266 30.1953 29.4531 30.3125 29.1406 30.3125V30.3125Z" fill="#F10132"/>
</g>
</svg>
