<svg xmlns="http://www.w3.org/2000/svg" xmlns:xlink="http://www.w3.org/1999/xlink"><symbol id="icon__arrow_next" viewBox="0 0 101 20"><path d="M100.53 10.53a.75.75 0 000-1.06l-4.773-4.773a.75.75 0 00-1.06 1.06L98.939 10l-4.242 4.243a.75.75 0 001.06 1.06l4.773-4.773zM0 10.75h100v-1.5H0v1.5z" fill="#F10132"/></symbol><symbol id="icon__arrow_prev" viewBox="0 0 51 20"><path d="M.47 9.47a.75.75 0 000 1.06l4.773 4.773a.75.75 0 101.06-1.06L2.061 10l4.242-4.243a.75.75 0 00-1.06-1.06L.47 9.47zM1 10.75h50v-1.5H1v1.5z" fill="#000"/></symbol><symbol id="icon__checkmark" viewBox="0 0 30 30"><path fill-rule="evenodd" clip-rule="evenodd" d="M15 26.25C8.787 26.25 3.75 21.213 3.75 15S8.787 3.75 15 3.75 26.25 8.787 26.25 15 21.213 26.25 15 26.25z" fill="#F10132"/><path d="M14.063 17.813L11.25 15M18.75 13.125l-4.688 4.688" stroke="#fff" stroke-width="3" stroke-linecap="round" stroke-linejoin="round"/></symbol><symbol id="icon__circle" viewBox="0 0 156 156"><circle cx="77" cy="77" r="4.5" stroke="#F10132"/><g fill="#F10132"><path fill-rule="evenodd" clip-rule="evenodd" d="M84.327 17.793a5.132 5.132 0 01-2.015-.665 5.3 5.3 0 01-1.507-1.37 5.757 5.757 0 01-.885-1.858 5.757 5.757 0 01-.127-2.13c.116-.967.44-1.828.974-2.583a5.197 5.197 0 012.079-1.705c.84-.396 1.756-.534 2.749-.415 1.019.123 1.877.474 2.572 1.054a5.249 5.249 0 011.574 2.163c.341.847.455 1.747.34 2.7l-.038.318a.954.954 0 01-.046.216l-8.856-1.063c-.023.749.103 1.435.377 2.06.289.611.69 1.123 1.206 1.534.53.4 1.125.639 1.787.718a3.777 3.777 0 001.968-.287c.65-.271 1.128-.67 1.433-1.198l1.133.458c-.27.465-.648.87-1.132 1.214a4.83 4.83 0 01-1.661.747 5.517 5.517 0 01-1.925.091zm-3.11-6.316l7.646.918c.037-.761-.088-1.448-.377-2.06a3.695 3.695 0 00-1.21-1.495 3.568 3.568 0 00-1.788-.718 3.568 3.568 0 00-1.906.275 3.849 3.849 0 00-1.532 1.186c-.413.527-.69 1.159-.832 1.894z"/><path d="M83.738 4.75l.224-1.867 1.151.138-.224 1.867-1.151-.139zM86.696 5.104l.224-1.866 1.152.138-.224 1.867-1.152-.139zM54.214 21.544L50.138 7.94l1.322-.396 3.525 11.763L59.89 5.02l1.245-.373 4.076 13.602-1.322.396-3.462-11.552-4.871 14.05-1.342.402zM43.162 20.794a1.823 1.823 0 00-.285-.907 1.678 1.678 0 00-.67-.619 1.789 1.789 0 00-.9-.192 1.582 1.582 0 00-.883.247 1.68 1.68 0 00-.625.698 2.018 2.018 0 00-.22.892c.006.311.094.602.264.874.176.282.407.5.691.652.289.134.588.198.9.192.321-.013.618-.104.89-.274.27-.17.477-.393.618-.67a1.79 1.79 0 00.22-.893z"/><path fill-rule="evenodd" clip-rule="evenodd" d="M34.305 35.718a4.182 4.182 0 01-2.114 1.212 5.258 5.258 0 01-2.334 0l4.621 4.456-.944.98-10.567-10.19.847-.879 1.454 1.402a4.72 4.72 0 01.015-2.291 4.265 4.265 0 011.095-2.029 4.286 4.286 0 011.705-1.106 4.891 4.891 0 011.947-.29c.67.035 1.324.193 1.96.474a5.387 5.387 0 011.704 1.114c.7.676 1.21 1.445 1.527 2.307.317.843.408 1.69.273 2.54-.136.852-.532 1.618-1.19 2.3zm-1.128-.56c.398-.413.673-.86.824-1.345.142-.492.18-.993.114-1.5a4.306 4.306 0 00-.437-1.478 4.789 4.789 0 00-.942-1.27 4.32 4.32 0 00-1.36-.895 3.949 3.949 0 00-1.534-.34 4.174 4.174 0 00-1.523.254c-.487.179-.92.465-1.3.858-.24.25-.442.555-.605.917a4.253 4.253 0 00-.333 1.18c-.058.406-.056.798.008 1.174.063.376.201.703.414.982l2.303 2.221a4.893 4.893 0 001.562.312c.528.009 1.04-.071 1.537-.24.496-.189.92-.465 1.272-.83zM25.217 46.828a5.13 5.13 0 001.488-1.513 5.042 5.042 0 00.784-1.972 5.065 5.065 0 00-.094-2.018 5.511 5.511 0 00-.85-1.844 5.649 5.649 0 00-1.519-1.444 5.602 5.602 0 00-1.95-.817 5.223 5.223 0 00-2.03-.035 4.955 4.955 0 00-1.885.73 4.798 4.798 0 00-1.493 1.485 4.933 4.933 0 00-.767 1.983 4.958 4.958 0 00.093 2.018c.158.66.442 1.275.85 1.844A5.6 5.6 0 0019.38 46.7a5.648 5.648 0 001.933.806 5.711 5.711 0 002.02.051 5.368 5.368 0 001.884-.73zm-3.018-.535a4.52 4.52 0 01-2.049-.739c-.659-.43-1.156-.96-1.492-1.593-.347-.64-.53-1.3-.547-1.98a3.325 3.325 0 01.551-1.909 3.41 3.41 0 011.507-1.286 4.113 4.113 0 012.027-.326c.725.06 1.412.3 2.06.722a4.453 4.453 0 011.492 1.594c.347.64.52 1.302.52 1.986a3.41 3.41 0 01-.569 1.897 3.501 3.501 0 01-1.49 1.297 4.155 4.155 0 01-2.01.337zM21.468 55.565c-.626 1.559-1.576 2.55-2.852 2.972-1.283.405-2.772.267-4.467-.413-1.2-.481-2.175-.987-2.925-1.518-.75-.53-1.314-1.094-1.692-1.691a5.213 5.213 0 01-.77-1.947 9.165 9.165 0 01-.073-2.292l.294-4.601 1.14.328-.29 4.43c-.05.842.017 1.587.202 2.236.185.65.518 1.235.997 1.758.473.505 1.162.99 2.068 1.454a3.781 3.781 0 01-1.057-2.148c-.128-.827-.016-1.68.337-2.558.377-.94.889-1.662 1.536-2.164a4.08 4.08 0 012.207-.882c.82-.073 1.674.069 2.566.426.94.377 1.689.893 2.245 1.547.549.637.88 1.387.993 2.252.106.846-.047 1.784-.46 2.81zm-1.114-.447c.442-1.102.466-2.076.073-2.923-.4-.864-1.132-1.51-2.197-1.937-1.039-.417-2.006-.46-2.9-.129-.89.319-1.56 1.041-2.011 2.167a3.988 3.988 0 00-.292 1.909c.064.629.294 1.202.69 1.72.4.506.984.912 1.751 1.22.669.268 1.32.379 1.957.332a3.349 3.349 0 001.732-.663c.5-.388.9-.954 1.197-1.696zM12.704 69.66c.385.457.898.75 1.539.877a3.112 3.112 0 001.675-.116c.53-.207.991-.544 1.383-1.01.381-.482.637-1.05.767-1.703a5.737 5.737 0 00-.027-2.33 4.672 4.672 0 00-1.018-2.058l.749.129c.225.03.452-.02.682-.15.23-.131.384-.36.462-.684a.707.707 0 00.047-.235c.008-.107.02-.234.035-.38l-1.06-.21c-.046.167-.117.282-.21.345-.108.06-.253.072-.436.035l-4.728-.939c-1.268-.252-2.335-.083-3.2.506-.865.59-1.422 1.512-1.671 2.768a5.758 5.758 0 00-.037 2.032c.095.685.305 1.406.63 2.164l1.044-.323a8.016 8.016 0 01-.556-1.823 4.533 4.533 0 01.01-1.69c.179-.903.574-1.559 1.186-1.967.611-.41 1.348-.528 2.211-.356l.864.171a7.08 7.08 0 00-.638 1.362 10.91 10.91 0 00-.426 1.526c-.168.85-.187 1.629-.056 2.334.122.69.381 1.265.78 1.725zm3.22-6.252c.155.112.31.258.464.438.332.38.567.874.704 1.486.14.599.145 1.219.018 1.86-.101.51-.294.933-.579 1.27a2.43 2.43 0 01-.995.7 2.168 2.168 0 01-1.138.08c-.654-.13-1.112-.527-1.374-1.19-.262-.664-.299-1.474-.11-2.428a8.274 8.274 0 011.09-2.72l1.493.296c.13.026.273.095.427.208z"/><path d="M17.016 82.026l-10.42-.121.016-1.36 4.48.052.07-5.96-4.48-.052.015-1.36 10.42.121-.016 1.36-4.72-.055-.069 5.96 4.72.055-.016 1.36zM151.959 86.929l-13.906-2.874-.283 1.371 10.05 10.96-11.811-2.44-.279 1.352 13.906 2.873.263-1.273-10.245-11.102 12.026 2.484.279-1.351z"/><path fill-rule="evenodd" clip-rule="evenodd" d="M136.417 97.388l-3.32-1.493-.492 1.095 2.207.992-3.395 7.552-2.207-.992-.501 1.113 3.32 1.492.574-1.277 8.391 3.773 2.781-6.184-2.604-1.28c-1.127-.551-2.043-1.05-2.748-1.499-.692-.443-1.21-.85-1.554-1.225-.344-.373-.548-.714-.615-1.022a1.385 1.385 0 01.089-.88l.074-.165zm-3.256 7.242l2.337-5.199c.105.354.337.714.698 1.081.368.385.905.802 1.61 1.25.711.466 1.624.972 2.739 1.517l1.617.793-1.723 3.83-7.278-3.272zM127.144 112.064c.43-.61.944-1.096 1.542-1.458a5.292 5.292 0 011.921-.676 5.733 5.733 0 012.056.104c.68.169 1.325.469 1.935.9a5.54 5.54 0 011.81 2.084 5.2 5.2 0 01.513 2.638c-.05.927-.364 1.799-.94 2.616-.592.839-1.308 1.427-2.149 1.764a5.248 5.248 0 01-2.651.357 5.378 5.378 0 01-2.538-.982l-.261-.184a.972.972 0 01-.169-.143l5.142-7.29a4.703 4.703 0 00-1.992-.646 4.265 4.265 0 00-1.923.333 3.637 3.637 0 00-1.481 1.231 3.783 3.783 0 00-.682 1.869c-.07.701.055 1.311.374 1.83l-.942.78a3.916 3.916 0 01-.53-1.573 4.846 4.846 0 01.131-1.817 5.529 5.529 0 01.834-1.737zm7.034.262l-4.438 6.293c.652.394 1.316.61 1.992.646a3.688 3.688 0 001.891-.356 3.567 3.567 0 001.48-1.231 3.577 3.577 0 00.664-1.808 3.85 3.85 0 00-.316-1.912c-.269-.614-.693-1.158-1.273-1.632z"/><path d="M138.903 117.739l1.536 1.083-.669.948-1.536-1.083.669-.948zM137.185 120.174l1.536 1.083-.668.948-1.537-1.083.669-.948zM127.557 126.299l-6.529-6.482-.958.966 6.529 6.481-2.621 2.64.866.86 6.2-6.245-.866-.86-2.621 2.64zM112.307 127.501l5.267 8.991-1.174.688-2.264-3.866-5.143 3.013 2.265 3.865-1.174.688-5.267-8.991 1.174-.688 2.386 4.073 5.142-3.013-2.385-4.072 1.173-.688z"/><path fill-rule="evenodd" clip-rule="evenodd" d="M103.899 137.544c.194-.565.181-1.155-.04-1.77a3.113 3.113 0 00-.96-1.377 3.417 3.417 0 00-1.577-.667 3.948 3.948 0 00-1.855.218 5.742 5.742 0 00-1.985 1.221 4.674 4.674 0 00-1.241 1.932l-.275-.709a1.062 1.062 0 00-.48-.508c-.23-.13-.505-.145-.823-.045a.683.683 0 00-.226.081c-.096.048-.21.104-.344.166l.364 1.016c.167-.046.302-.044.405.004.107.061.191.179.254.355l1.626 4.538c.436 1.217 1.129 2.045 2.08 2.484.95.439 2.027.442 3.232.01a5.755 5.755 0 001.761-1.013c.539-.434 1.05-.985 1.533-1.653l-.814-.729a7.962 7.962 0 01-1.278 1.414 4.523 4.523 0 01-1.455.861c-.866.31-1.631.308-2.296-.006-.665-.314-1.146-.885-1.443-1.714l-.296-.828c.455.006.954-.045 1.496-.154.541-.109 1.05-.249 1.527-.42.816-.292 1.493-.676 2.031-1.152.53-.459.889-.977 1.079-1.555zm-7.019.453c.017-.19.063-.397.139-.623.153-.479.457-.935.912-1.367.442-.428.97-.751 1.585-.972.49-.175.952-.227 1.388-.157.441.083.811.248 1.112.494.305.259.523.57.653.934.225.628.12 1.225-.314 1.791-.435.567-1.11 1.014-2.026 1.342a7.594 7.594 0 01-1.422.361 8.35 8.35 0 01-1.472.102l-.512-1.431a1.123 1.123 0 01-.043-.474zM87.16 137.264c1.659-.264 2.997.042 4.014.92 1.006.893 1.653 2.241 1.94 4.045.204 1.278.27 2.374.2 3.29-.07.916-.264 1.689-.583 2.32a5.204 5.204 0 01-1.274 1.661 9.143 9.143 0 01-1.93 1.239l-4.099 2.111-.304-1.147 3.95-2.026c.749-.389 1.354-.83 1.816-1.322a4.332 4.332 0 00.996-1.758c.19-.665.253-1.505.186-2.521a3.783 3.783 0 01-1.3 2.01c-.645.534-1.434.876-2.369 1.025-1 .159-1.883.09-2.645-.207a4.077 4.077 0 01-1.89-1.441c-.484-.665-.802-1.472-.953-2.42-.159-1.001-.1-1.908.175-2.721a4.203 4.203 0 011.422-2.009c.672-.526 1.555-.875 2.648-1.049zm.188 1.185c-1.172.186-2.02.666-2.545 1.438-.537.787-.715 1.747-.534 2.88.176 1.106.635 1.957 1.379 2.555.73.599 1.694.803 2.892.613a3.997 3.997 0 001.787-.73c.507-.378.881-.87 1.123-1.475.227-.604.276-1.313.147-2.13-.114-.711-.354-1.327-.72-1.85a3.355 3.355 0 00-1.458-1.145c-.59-.23-1.28-.282-2.07-.156zM77.748 138.494a5.126 5.126 0 00-2.062-.5 5.04 5.04 0 00-2.095.339 5.08 5.08 0 00-1.684 1.116 5.506 5.506 0 00-1.146 1.677 5.648 5.648 0 00-.46 2.044 5.6 5.6 0 00.3 2.093 5.219 5.219 0 001.013 1.76 4.95 4.95 0 001.593 1.243c.615.317 1.296.49 2.042.519a4.935 4.935 0 002.095-.359 4.967 4.967 0 001.685-1.116 5.224 5.224 0 001.145-1.677c.278-.63.431-1.318.46-2.064a5.644 5.644 0 00-.3-2.073 5.705 5.705 0 00-.993-1.76 5.361 5.361 0 00-1.593-1.242zm1.09 2.864c.309.652.448 1.365.418 2.138-.03.786-.23 1.485-.602 2.098a4.348 4.348 0 01-1.418 1.486 3.326 3.326 0 01-1.92.507 3.413 3.413 0 01-1.878-.633 4.11 4.11 0 01-1.32-1.572 4.38 4.38 0 01-.438-2.139c.03-.759.23-1.459.601-2.098a4.115 4.115 0 011.438-1.466 3.407 3.407 0 011.92-.486 3.502 3.502 0 011.878.613 4.15 4.15 0 011.321 1.552zM63.323 136.332a4.18 4.18 0 012.123 1.196 5.256 5.256 0 011.193 2.006l1.467-6.25 1.324.31-3.353 14.292-1.188-.279.461-1.966a4.715 4.715 0 01-1.977 1.159 4.26 4.26 0 01-2.303.096 4.277 4.277 0 01-1.822-.9 4.882 4.882 0 01-1.245-1.524 5.543 5.543 0 01-.596-1.927 5.386 5.386 0 01.087-2.034 6.12 6.12 0 011.201-2.492 4.917 4.917 0 012.044-1.533c.801-.319 1.662-.37 2.584-.154zm.096 1.255a3.398 3.398 0 00-1.577-.021c-.496.13-.946.353-1.349.67-.416.313-.764.69-1.046 1.131a4.78 4.78 0 00-.61 1.459 4.317 4.317 0 00-.073 1.626c.066.536.23 1.034.493 1.492.262.459.594.852.997 1.179.402.327.87.553 1.402.678.337.079.703.097 1.097.052.394-.044.789-.15 1.184-.318.38-.157.714-.359 1.005-.606a2.2 2.2 0 00.633-.858l.73-3.116a4.897 4.897 0 00-.53-1.501 4.49 4.49 0 00-.993-1.198 3.437 3.437 0 00-1.363-.669z"/><path d="M46.094 136.328a1.82 1.82 0 00-.634.709 1.678 1.678 0 00-.188.892c.02.311.118.601.294.871.158.276.38.487.664.634.285.146.591.206.92.179.31-.02.603-.109.879-.267.264-.164.47-.389.615-.673.153-.297.222-.606.207-.928a2.015 2.015 0 00-.294-.871 1.785 1.785 0 00-.691-.625 1.685 1.685 0 00-.893-.189 1.797 1.797 0 00-.88.268zM41.147 126.405l-9.593 10.469-1.018-.932 8.297-9.054-14.785 3.109-.958-.879 9.594-10.469 1.017.933-8.148 8.891 14.562-3.014 1.032.946z"/><path fill-rule="evenodd" clip-rule="evenodd" d="M30.615 118.24l2.974-2.098-.691-.98-1.978 1.395-4.772-6.767 1.977-1.395-.703-.997-2.974 2.098.807 1.145-7.518 5.302 3.907 5.541 2.428-1.59c1.047-.69 1.943-1.224 2.688-1.602.733-.371 1.349-.609 1.845-.715.497-.105.895-.108 1.193-.009.299.1.536.275.713.525l.104.147zm-4.576-6.488l3.285 4.658c-.358-.091-.786-.074-1.286.05-.519.121-1.15.371-1.895.749-.763.375-1.663.904-2.7 1.586l-1.505.988-2.42-3.432 6.52-4.599zM22.72 102.813c.305.681.462 1.371.469 2.07a5.298 5.298 0 01-.395 1.998 5.755 5.755 0 01-1.136 1.716 5.755 5.755 0 01-1.76 1.208 5.54 5.54 0 01-2.715.497 5.194 5.194 0 01-2.532-.901c-.772-.515-1.364-1.229-1.774-2.141-.42-.936-.562-1.852-.424-2.747a5.249 5.249 0 011.041-2.464 5.395 5.395 0 012.138-1.685l.292-.131a.98.98 0 01.208-.072l3.658 8.136a4.696 4.696 0 001.57-1.386 4.259 4.259 0 00.693-1.824 3.639 3.639 0 00-.307-1.902 3.776 3.776 0 00-1.262-1.538c-.567-.417-1.156-.62-1.765-.609l-.192-1.208a3.907 3.907 0 011.624.344 4.83 4.83 0 011.497 1.038c.435.447.792.981 1.071 1.601zm-3.807 5.922l-3.158-7.023c-.671.361-1.194.822-1.57 1.386-.38.551-.6 1.154-.656 1.808a3.567 3.567 0 00.307 1.901 3.565 3.565 0 001.219 1.492 3.857 3.857 0 001.806.701c.665.081 1.349-.007 2.052-.265z"/><path d="M11.85 110.047l-1.715.771-.476-1.058 1.715-.771.475 1.058zM10.627 107.329l-1.714.771-.476-1.058 1.715-.771.475 1.058zM10.242 95.836l8.915-2.272-.336-1.317-8.915 2.27-.918-3.604-1.183.301 2.173 8.528 1.182-.302-.918-3.604z"/><path fill-rule="evenodd" clip-rule="evenodd" d="M66.418 16.676l.28 3.629 1.197-.093-.187-2.413 8.256-.638.186 2.413 1.217-.094-.28-3.629-1.397.108-.709-9.173-6.76.523.124 2.899c.057 1.252.057 2.296.001 3.13-.057.82-.167 1.47-.33 1.95-.164.481-.365.824-.603 1.03-.238.205-.51.32-.816.344l-.18.014zm7.916-.612l-5.683.439c.26-.26.466-.638.615-1.13.161-.508.27-1.178.326-2.012.068-.848.074-1.891.019-3.13l-.08-1.8 4.188-.324.615 7.957z"/><path d="M96.274 10.55l-2.607 8.822 1.304.386 2.608-8.823 3.567 1.054.346-1.17-8.44-2.494-.345 1.17 3.567 1.054zM104.614 23.335l5.432-8.892 1.16.708-2.335 3.824 5.087 3.106 2.335-3.823 1.16.709-5.431 8.892-1.161-.708 2.461-4.029-5.087-3.106-2.46 4.028-1.161-.709z"/><path fill-rule="evenodd" clip-rule="evenodd" d="M117.637 26.08c-.589.095-1.103.386-1.541.87a3.114 3.114 0 00-.759 1.498 3.407 3.407 0 00.157 1.705 3.94 3.94 0 001.069 1.532 5.744 5.744 0 002.014 1.172c.778.253 1.541.313 2.289.18l-.494.578a1.06 1.06 0 00-.221.663c-.006.264.111.513.349.746.031.046.09.1.178.161.088.062.191.137.309.225l.724-.801c-.12-.126-.182-.246-.188-.359.003-.123.067-.254.192-.392l3.231-3.577c.867-.96 1.269-1.962 1.206-3.007-.063-1.045-.569-1.996-1.519-2.854a5.769 5.769 0 00-1.725-1.073c-.637-.27-1.364-.46-2.182-.569l-.257 1.061c.703.097 1.32.25 1.85.458.548.208 1.031.5 1.446.875.683.617 1.043 1.293 1.08 2.027.038.734-.238 1.428-.828 2.081l-.59.653a7.065 7.065 0 00-.842-1.245 10.906 10.906 0 00-1.092-1.148c-.644-.581-1.302-.996-1.975-1.245-.655-.25-1.282-.322-1.881-.216zm3.717 5.97c-.175.075-.38.132-.614.173-.496.09-1.041.038-1.637-.158a4.366 4.366 0 01-1.605-.938c-.386-.348-.651-.731-.795-1.149a2.43 2.43 0 01-.09-1.213c.084-.391.255-.73.515-1.017.446-.495 1.022-.685 1.727-.57.704.116 1.417.5 2.14 1.152.366.33.696.691.989 1.082.304.4.566.816.786 1.249l-1.019 1.128a1.112 1.112 0 01-.397.26zM125.441 41.048c-1.017-1.336-1.38-2.66-1.089-3.972.311-1.309 1.193-2.517 2.646-3.623 1.029-.784 1.964-1.361 2.804-1.733.839-.371 1.613-.566 2.319-.585a5.217 5.217 0 012.067.337 9.189 9.189 0 012.004 1.114l3.799 2.612-.866.81-3.654-2.521c-.697-.475-1.372-.8-2.024-.973a4.332 4.332 0 00-2.02-.046c-.676.147-1.446.49-2.309 1.03a3.782 3.782 0 012.386.194c.776.314 1.45.848 2.024 1.601.614.806.97 1.616 1.069 2.428a4.068 4.068 0 01-.375 2.347c-.357.742-.917 1.403-1.681 1.985-.806.613-1.633.992-2.48 1.134a4.206 4.206 0 01-2.442-.302c-.781-.344-1.507-.956-2.178-1.837zm.955-.727c.719.944 1.543 1.465 2.472 1.562.947.1 1.877-.197 2.789-.892.891-.678 1.424-1.486 1.599-2.424.182-.926-.094-1.873-.829-2.838a3.995 3.995 0 00-1.489-1.229 3.342 3.342 0 00-1.83-.29c-.64.084-1.288.377-1.946.878-.573.436-1.003.939-1.289 1.509a3.353 3.353 0 00-.319 1.826c.077.63.357 1.262.842 1.898zM130.83 48.412a5.12 5.12 0 00.547 2.05c.337.681.77 1.24 1.299 1.678a5.068 5.068 0 001.785.946 5.515 5.515 0 002.021.205 5.644 5.644 0 002.014-.573 5.593 5.593 0 001.696-1.264 5.223 5.223 0 001.062-1.73 4.96 4.96 0 00.33-1.994 4.786 4.786 0 00-.52-2.041 4.926 4.926 0 00-1.317-1.67 4.958 4.958 0 00-1.785-.945 5.221 5.221 0 00-2.02-.205 5.6 5.6 0 00-2.033.582 5.651 5.651 0 00-1.678 1.255 5.714 5.714 0 00-1.071 1.713 5.372 5.372 0 00-.33 1.993zm1.995-2.327a4.522 4.522 0 011.678-1.388c.705-.35 1.415-.508 2.131-.475a4.354 4.354 0 011.983.536 3.321 3.321 0 011.363 1.445c.308.621.421 1.272.341 1.951-.08.68-.33 1.317-.75 1.911a4.372 4.372 0 01-1.669 1.407 4.453 4.453 0 01-2.131.475 4.111 4.111 0 01-1.974-.563 3.411 3.411 0 01-1.345-1.454 3.509 3.509 0 01-.359-1.942c.08-.68.324-1.314.732-1.903zM135.858 62.206a4.181 4.181 0 01.044-2.436 5.26 5.26 0 011.198-2.003l-6.197 1.68-.355-1.313 14.169-3.84.319 1.177-1.95.529a4.715 4.715 0 011.959 1.189 4.252 4.252 0 011.179 1.98c.189.695.213 1.372.074 2.032a4.888 4.888 0 01-.75 1.82 5.541 5.541 0 01-1.413 1.439 5.376 5.376 0 01-1.831.89 6.113 6.113 0 01-2.762.127 4.91 4.91 0 01-2.321-1.07c-.661-.553-1.116-1.287-1.363-2.2zm1.059-.68c.15.553.393 1.019.731 1.397.35.375.76.664 1.23.869.473.217.97.344 1.492.383a4.79 4.79 0 001.574-.157 4.314 4.314 0 001.465-.708c.441-.313.8-.694 1.079-1.142a4.18 4.18 0 00.564-1.438 3.429 3.429 0 00-.07-1.556 3.195 3.195 0 00-.475-.99 4.246 4.246 0 00-.842-.89 3.773 3.773 0 00-1.012-.597 2.193 2.193 0 00-1.055-.149l-3.089.837c-.42.335-.776.729-1.068 1.18-.279.45-.474.93-.583 1.443a3.426 3.426 0 00.059 1.518z"/><path d="M144.076 77.206c.284.153.592.226.925.219.32-.008.612-.095.875-.26.263-.167.471-.392.624-.675.167-.271.247-.566.24-.886a1.683 1.683 0 00-.281-.894 2.011 2.011 0 00-.655-.645 1.678 1.678 0 00-.885-.22 1.825 1.825 0 00-.915.262c-.262.18-.47.404-.624.674a1.774 1.774 0 00-.219.906c.007.32.094.611.26.874.166.276.385.491.655.645z"/></g></symbol><symbol id="icon__cross" viewBox="0 0 50 50"><path d="M11.189 11.19c-7.627 7.627-7.627 19.994 0 27.621 7.628 7.627 19.994 7.627 27.622 0 7.627-7.628 7.627-19.994 0-27.622-7.628-7.627-19.995-7.627-27.622 0z" fill="#fff"/><path d="M11.72 38.28c-7.335-7.334-7.335-19.225 0-26.56 7.334-7.335 19.225-7.335 26.56 0 7.334 7.334 7.335 19.226 0 26.56-7.334 7.335-19.226 7.335-26.56 0z" stroke="#000" stroke-opacity=".25" stroke-width="1.5"/><path d="M20.86 30.313c-.313 0-.587-.118-.82-.352-.47-.469-.47-1.211 0-1.64l8.28-8.282c.47-.469 1.211-.469 1.64 0 .47.469.47 1.211 0 1.64l-8.28 8.282a1.124 1.124 0 01-.82.352z" fill="#F10132"/><path d="M29.14 30.313c-.312 0-.585-.118-.82-.352l-8.28-8.281c-.47-.47-.47-1.211 0-1.64.468-.47 1.21-.47 1.64 0l8.28 8.28c.47.47.47 1.211 0 1.64a1.124 1.124 0 01-.82.352z" fill="#F10132"/></symbol><symbol id="icon__cup" viewBox="0 0 50 50"><path d="M21.094 33.078v12.5l-7.422-4.687-7.422 4.687v-12.5" fill="#F10132" fill-opacity=".25"/><g fill="#fff"><path d="M39.063 40.89H24.608v4.688h14.453v-4.687zM23.443 30.174a10.906 10.906 0 008.198 3.685 10.92 10.92 0 0010.937-10.937V4.172H20.703v10.155a11.667 11.667 0 00-7.031-2.343c-6.472 0-11.719 5.247-11.719 11.72 0 6.471 5.247 11.718 11.719 11.718 4.08 0 7.673-2.085 9.771-5.248z"/></g><g fill-rule="evenodd" clip-rule="evenodd" fill="#000"><path d="M20.031 4.172c0-.388.284-.672.672-.672h21.875c.388 0 .672.284.672.672v3.234h5.188c.387 0 .671.284.671.672v8.828c0 3.224-2.393 5.913-5.48 6.421l-.388.064-.029.393c-.412 5.619-4.833 10.187-10.446 10.71l-.453.043v5.682h6.75c.387 0 .671.284.671.672v4.687a.651.651 0 01-.672.672h-13.28a.651.651 0 01-.673-.672c0-.388.284-.672.672-.672h12.61v-3.343H25.78a.651.651 0 01-.672-.672c0-.388.284-.672.672-.672h5.227v-5.733l-.466-.032a10.335 10.335 0 01-3.166-.745l-.013-.005a.666.666 0 01-.375-.87l.004-.01a.666.666 0 01.867-.376c1.194.493 2.47.74 3.782.74 5.666 0 10.265-4.6 10.265-10.266V4.844H21.375v3.234a.651.651 0 01-.672.672h-5.86a.651.651 0 01-.671-.672c0-.388.284-.672.672-.672h5.187V4.172zM47.766 8.75H43.25v13.289l.621-.155a5.155 5.155 0 003.895-5.017V8.75z"/><path d="M1.281 23.703c0-6.833 5.558-12.39 12.39-12.39 6.834 0 12.392 5.557 12.392 12.39 0 3.677-1.613 6.945-4.134 9.24l-.163.149v12.486c0 .244-.131.46-.349.569l-.04.02-.036.027c-.037.027-.11.056-.247.056-.11 0-.215-.033-.363-.121l-7.06-4.463-7.063 4.466-.01.007c-.18.119-.414.136-.671.008a.626.626 0 01-.349-.569v-8.594c0-.388.284-.672.672-.672.388 0 .672.285.672.672v7.398l6.387-4.081a.699.699 0 01.726 0l6.387 4.036V34.09l-.75.43a12.034 12.034 0 01-6 1.575c-6.833 0-12.39-5.558-12.39-12.39zm12.39-11.047c-6.096 0-11.046 4.95-11.046 11.047S7.575 34.75 13.672 34.75c6.096 0 11.047-4.95 11.047-11.047 0-6.096-4.95-11.047-11.047-11.047z"/></g></symbol><symbol id="icon__girl" viewBox="0 0 50 50"><g fill="#F10132" fill-opacity=".25"><path d="M25 .39c5.234 0 10.156 2.15 13.945 5.977 3.711 3.828 5.782 8.828 5.82 14.102 0 .312-.156.586-.35.82-.196.234-.509.352-.821.352h-3.946c-.502 0-1.927.164-3.73.373l-.488.056-.133.015c-4.854.548-12.667 1.43-19.828 1.43-2.54 0-5-.117-7.227-.39-1.797-.234-3.125-1.914-2.89-3.71C6.602 8.944 15.43.39 25 .39zM6.367 23.594h37.266c.625 0 1.172.547 1.133 1.172v8.828a8.986 8.986 0 01-8.985 8.984H14.18a8.986 8.986 0 01-8.985-8.984v-8.828a1.15 1.15 0 011.172-1.172z"/></g><path d="M45.313 24.805c.117-1.328-.586-2.54-1.68-3.164v-.04h-.04a6.2 6.2 0 01-5.937-4.374c-1.562-4.961-4.492-8.516-8.437-4.922-1.039.941-1.954 1.951-2.87 2.962-1.67 1.842-3.342 3.686-5.763 5.124-2.795 1.65-6.11 1.267-8.948.94-2.2-.254-4.111-.475-5.27.31a3.365 3.365 0 00-1.68 2.93c0 1.913 1.64 3.398 3.515 3.398h2.227c1.512 7.093 5.713 13.19 12.724 14.101h-1.67a6.368 6.368 0 01-6.367 6.367v1.172h20.547v-1.172a6.368 6.368 0 01-6.367-6.367h-2.451c7.011-.91 11.215-7.01 12.763-14.14h2.227c1.797 0 3.36-1.328 3.477-3.125z" fill="#fff"/><g fill="#000"><path d="M28.737 11.852a.669.669 0 01.934.048.67.67 0 01-.049.935c-.99.912-1.9 1.861-2.806 2.885l-.118.129c-1.685 1.838-3.374 3.681-5.82 5.127l-.005.003c-1.689 1.028-3.618 1.334-5.482 1.334-1.167 0-2.304-.124-3.325-.235l-.328-.035a.675.675 0 01-.578-.73.675.675 0 01.731-.582l.135.014c2.442.268 5.643.619 8.191-.902h.002c2.306-1.392 3.902-3.137 5.553-4.942l.066-.071.005-.007a41.745 41.745 0 012.894-2.97zM18.893 46.306a.669.669 0 01.934.047.669.669 0 01-.048.935l-.005.005c-1.269 1.196-2.94 1.816-4.657 1.816a.651.651 0 01-.672-.671c0-.388.284-.672.672-.672a5.55 5.55 0 003.776-1.46zM4.688 23.938a.651.651 0 00-.672.671c0 2.168 1.907 4.03 4.185 4.032h.002c1.004 0 1.819.614 2.117 1.56l.003.008C12.738 38.335 18.088 42.86 25 42.86h.011c1.262 0 2.473-.152 3.622-.45.18 3.71 3.28 6.7 7.031 6.7.36 0 .672-.294.672-.672a.651.651 0 00-.672-.671c-3.128 0-5.695-2.568-5.695-5.696a.746.746 0 00-.004-.08c4.487-1.675 7.914-5.729 9.712-11.78l.002-.009.003-.008c.297-.89 1.138-1.548 2.104-1.552h.01c2.21 0 4.014-1.644 4.19-3.754a.677.677 0 00-.625-.716h-.002a.676.676 0 00-.72.624v.011l-.001.011c-.145 1.399-1.383 2.474-2.83 2.48h-.011a3.52 3.52 0 00-3.388 2.532v.002c-.518 1.73-1.627 4.636-3.72 7.117-2.105 2.495-5.214 4.568-9.689 4.568s-7.584-2.073-9.689-4.568c-2.094-2.48-3.202-5.386-3.72-7.117v-.002a3.52 3.52 0 00-3.388-2.532.729.729 0 00-.212.03c-1.416-.11-2.632-1.318-2.632-2.718a.651.651 0 00-.671-.672z"/></g></symbol><symbol id="icon__logo" viewBox="0 0 161 50"><path d="M30.067 5.894a296.864 296.864 0 01-2.52-4.644c-2.72 4.748-4.265 9.672-4.424 14.004-4.272-3.144-8.547-3.27-14.613-7.497-.337 7.688 1.553 14.618 5.21 18.627-4.242-.25-8.361.027-13.72.56 6.474 8.276 21.56 14.964 29.897 12.909 5.025-.844 8.853-5.214 8.853-10.478 0-8.279-4.826-16.473-8.683-23.48z" fill="#F10132"/><path d="M19.194 6.124c6.766 7.556 10.21 12.035 14.228 21.97-1.22 2.118-4.516 3.163-5.56 2.783-8.668-3.155-12.016-12.916-8.668-24.753z" fill="#fff" stroke="#000" stroke-width="2"/><path d="M21.484 31.38a272.82 272.82 0 01-5.234 12.37c3.57-3.064 5.389-4.078 10.235-6.118 4.846-2.04 7.72-6.287 9.339-10.78 1.618-4.492 2.513-5.835 5.822-6.72 3.02-.808 4.059-1.113 7.354-2.036-6.166.082-7.447.6-10.465 0-3.555-.772-5.232-.817-7.492 0-3.522 1.34-6.237 5.9-9.56 13.283z" fill="#fff" stroke="#000" stroke-width="2" stroke-linejoin="round"/><path d="M3.75 13.75c9.294 3.303 14.358 5.613 22.5 12.492 0 2.547-1.946 4.927-3.81 5.634-8.168 3.096-15.79-5.699-18.69-18.126z" fill="#fff" stroke="#000" stroke-width="2"/><circle cx="33.75" cy="21.25" r="1.25" fill="#000"/><path d="M76.775 15.75V33.5H73.35v-7.575H65.3V33.5h-3.45V15.75h3.45v7.175h8.05V15.75h3.425zm3.753 12.85v-8.2h3.35v7.475c0 1 .183 1.758.55 2.275.367.5.908.75 1.625.75.433 0 .858-.083 1.275-.25a3.68 3.68 0 001.175-.8 4.37 4.37 0 00.925-1.325V20.4h3.35v9.35c0 .35.058.6.175.75.133.15.342.242.625.275V33.5c-.333.05-.617.083-.85.1-.217.033-.417.05-.6.05-.6 0-1.092-.133-1.475-.4a1.685 1.685 0 01-.65-1.15l-.075-1.05a5.833 5.833 0 01-2.25 2.025c-.917.45-1.925.675-3.025.675-1.35 0-2.375-.433-3.075-1.3-.7-.883-1.05-2.167-1.05-3.85zm15.279-1.65c0-1.267.25-2.408.75-3.425.5-1.033 1.192-1.85 2.075-2.45.883-.6 1.892-.9 3.025-.9.967 0 1.833.242 2.6.725.783.467 1.392 1.067 1.825 1.8v-7.45h3.35v14.5c0 .35.058.6.175.75.117.15.317.242.6.275V33.5c-.583.117-1.058.175-1.425.175-.6 0-1.1-.15-1.5-.45-.383-.3-.6-.692-.65-1.175l-.05-.825a4.86 4.86 0 01-1.975 1.875 5.42 5.42 0 01-2.575.65c-.9 0-1.733-.175-2.5-.525a6.247 6.247 0 01-1.975-1.45 6.997 6.997 0 01-1.3-2.15 7.838 7.838 0 01-.45-2.675zm10.275 1.75v-3.125a3.528 3.528 0 00-.8-1.3 4.233 4.233 0 00-1.225-.9 2.91 2.91 0 00-1.35-.35c-.517 0-.983.108-1.4.325a3.7 3.7 0 00-1.1.875c-.3.367-.533.792-.7 1.275-.15.483-.225.992-.225 1.525 0 .533.083 1.042.25 1.525a3.74 3.74 0 001.925 2.05c.45.2.933.3 1.45.3.317 0 .633-.05.95-.15.333-.117.642-.267.925-.45.3-.2.558-.433.775-.7.233-.283.408-.583.525-.9zm14.643 4.925a7.865 7.865 0 01-3.275-.7 8.788 8.788 0 01-2.7-1.925 9.228 9.228 0 01-1.8-2.9c-.433-1.1-.65-2.292-.65-3.575 0-1.217.217-2.358.65-3.425a8.788 8.788 0 011.825-2.85 8.622 8.622 0 012.75-1.925c1.05-.467 2.192-.7 3.425-.7 1.667 0 3.092.358 4.275 1.075 1.2.7 2.1 1.633 2.7 2.8l-2.575 1.9c-.45-.883-1.083-1.558-1.9-2.025-.8-.467-1.675-.7-2.625-.7-.75 0-1.433.158-2.05.475a5 5 0 00-1.6 1.3 6.19 6.19 0 00-1.05 1.9 7.313 7.313 0 00-.35 2.275c0 .85.125 1.633.375 2.35a5.985 5.985 0 001.1 1.875 5.661 5.661 0 001.675 1.275c.633.3 1.333.45 2.1.45.9 0 1.758-.233 2.575-.7.833-.467 1.608-1.15 2.325-2.05v3.4c-1.483 1.6-3.217 2.4-5.2 2.4zm4.95-6.725H122.1v-2.525h6.425V33.5h-2.85v-6.6zm5.965 6.6V20.4h3.35v13.1h-3.35zm0-14.925V15.25h3.35v3.325h-3.35zM158.862 33.5h-3.35v-7.35c0-1.033-.183-1.792-.55-2.275-.35-.5-.841-.75-1.475-.75-.65 0-1.275.258-1.875.775-.583.5-1 1.158-1.25 1.975V33.5h-3.35v-7.35c0-1.05-.183-1.817-.55-2.3-.35-.483-.841-.725-1.475-.725-.65 0-1.275.25-1.875.75-.583.5-1 1.158-1.25 1.975v7.65h-3.35V20.4h3.025v2.425a5.11 5.11 0 012-1.95c.834-.467 1.792-.7 2.875-.7 1.084 0 1.925.267 2.525.8a3.512 3.512 0 011.175 1.975c.534-.9 1.209-1.583 2.025-2.05.834-.483 1.767-.725 2.8-.725.817 0 1.475.15 1.975.45.517.283.917.675 1.2 1.175.284.483.475 1.033.575 1.65.117.617.175 1.242.175 1.875V33.5z" fill="#000"/></symbol><symbol id="icon__map" viewBox="0 0 50 50"><path d="M46.484 13.281l-7.343-5.86a3.933 3.933 0 00-4.883 0l-5.156 4.141a7.908 7.908 0 01-4.883 1.72H5.469c-1.094 0-1.953.859-1.953 1.952v31.25c0 1.094.859 1.953 1.953 1.953h18.75a7.758 7.758 0 004.883-1.718l5.195-4.14a3.933 3.933 0 014.883 0l7.343 5.858V13.282h-.039z" fill="#fff"/><path d="M28.703 11.06l5.201-4.145c1.695-1.341 4.053-1.337 5.703-.003l.003.002 7.336 5.854c.17.147.25.324.25.513v35.157a.675.675 0 01-.37.598c-.266.1-.536.105-.764-.084l-7.35-5.864v-.001c-1.194-.964-2.865-.973-4.03.004l-5.148 4.172a.674.674 0 01-.935-.107.674.674 0 01.104-.94l5.202-4.145c1.695-1.341 4.052-1.337 5.703-.002l.002.001 6.242 4.985V13.587l-7.1-5.656h-.002c-1.193-.964-2.863-.973-4.028.003l-5.187 4.173A.674.674 0 0128.6 12a.674.674 0 01.104-.94zM2.844 15.234a2.634 2.634 0 012.625-2.625h18.75c.388 0 .672.284.672.672a.651.651 0 01-.672.672H5.469c-.706 0-1.282.575-1.282 1.281v31.25c0 .706.576 1.282 1.282 1.282h18.75c.388 0 .672.284.672.672a.675.675 0 01-.672.671H5.469a2.634 2.634 0 01-2.625-2.625v-31.25z" fill="#000"/><path d="M31.523 14.61a11.935 11.935 0 01-3.593 1.953 7.85 7.85 0 00-1.328 2.343c-.704 1.836 1.25 6.875 3.632 6.875 1.945 0 3.237-2.531 4.15-4.32.499-.978.884-1.734 1.202-1.734.385 0 .906.794 1.517 1.727.318.485.661 1.008 1.022 1.476.703.937 1.797 1.445 2.969 1.445h1.484v-8.672c0-.351-.156-.703-.43-.898l-4.687-3.75c-.43-.352-1.055-.352-1.445 0l-4.493 3.554zM21.115 30.372c.518-.143 1.183-.326 1.698-.84 0 0 1.093-2.11 3.164-1.368 2.137.817 1.821 1.103.497 2.303-.322.292-.703.637-1.122 1.056-.935.935-1.13 1.345-1.246 1.586-.15.315-.164.346-1.489.875-1.55.62-1.648-.228-1.762-1.213-.059-.505-.121-1.046-.386-1.443-.439-.657-.016-.774.646-.956zM35.781 36.133c-1.914.898-7.656-3.75-6.562-5.274.606-.836 1.638-.62 2.687-.401.911.19 1.836.384 2.508-.106 5.195-3.516 6.719-1.25 6.719-.079 0 1.172-2.11 4.336-5.352 5.86zM19.531 23.71c.625 1.134.274 3.048-.976 4.298-.305.295-.653.586-1.005.88-1.136.95-2.309 1.93-2.16 3.182.047.416.567.73 1.234 1.13 1.59.957 4.012 2.416 2.83 6.956-.227.869-.71 1.7-1.13 2.425l-.043.075a4.95 4.95 0 01-1.484 1.64l-.352.235H8.594a1.15 1.15 0 01-1.172-1.172V32.5c.664.039 1.328-.156 1.797-.625 1.21-1.211 2.617-3.633 2.89-5.977.47-3.945 5.352-5.898 7.422-2.187z" fill="#F10132" fill-opacity=".25"/></symbol><symbol id="icon__phone" viewBox="0 0 30 30"><path d="M21.094 29.063H8.906a2.35 2.35 0 01-2.344-2.344V3.28A2.35 2.35 0 018.906.937h12.188a2.35 2.35 0 012.343 2.344V26.72a2.35 2.35 0 01-2.343 2.343z" fill="#F10132" fill-opacity=".25"/><path d="M7.969 14.438a.69.69 0 01-.703-.704V3.281c0-.914.726-1.64 1.64-1.64a.69.69 0 01.703.703.69.69 0 01-.703.703c-.14 0-.234.094-.234.234v10.453a.705.705 0 01-.703.704zm0 9.093a.69.69 0 01-.703-.703v-.984a.69.69 0 01.703-.703.69.69 0 01.703.703v.984a.69.69 0 01-.703.703z" fill="#fff"/><path d="M21.094.234H8.906A3.04 3.04 0 005.86 3.281V26.72a3.04 3.04 0 003.047 3.047h12.188a3.04 3.04 0 003.047-3.047V3.28A3.04 3.04 0 0021.094.234zm1.64 26.485a1.63 1.63 0 01-1.64 1.64H8.906a1.63 1.63 0 01-1.64-1.64V3.28c0-.914.726-1.64 1.64-1.64h1.875v.703a.69.69 0 00.703.703h7.032a.69.69 0 00.703-.703V1.64h1.875c.914 0 1.64.726 1.64 1.64V26.72z" fill="#000"/></symbol><symbol id="icon__plus" viewBox="0 0 50 50"><path d="M6.219 25C6.219 14.627 14.627 6.219 25 6.219S43.781 14.627 43.781 25 35.373 43.781 25 43.781 6.219 35.373 6.219 25z" fill="#fff" stroke="#000" stroke-width="1.5"/><path d="M23.828 30.86A1.15 1.15 0 0025 32.03a1.15 1.15 0 001.172-1.172v-4.687h4.687A1.15 1.15 0 0032.031 25a1.15 1.15 0 00-1.172-1.172h-4.687v-4.687A1.15 1.15 0 0025 17.969a1.15 1.15 0 00-1.172 1.172v4.687h-4.687A1.15 1.15 0 0017.969 25a1.15 1.15 0 001.172 1.172h4.687v4.687z" fill="#F10132"/></symbol><symbol id="icon__podium" viewBox="0 0 50 50"><path d="M34.766 13.281H15.234V25H3.516v19.531h42.968V32.813H34.766V13.28z" fill="#F10132" fill-opacity=".12"/><path d="M19.14 13.281h-3.906v31.25h3.907v-31.25zM6.25 25H3.516v19.531H6.25V25z" fill="#fff"/><path d="M34.766 13.281h-3.907v31.25h7.813V32.813h-3.906V13.28zM11.328 25h3.906v19.531h-3.906V25z" fill="#F10132" fill-opacity=".12"/><path d="M14.563 13.281c0-.37.3-.672.671-.672h19.532c.37 0 .672.301.672.672V43.36a.5.5 0 00.5.5h9.374a.5.5 0 00.5-.5v-9.375a.5.5 0 00-.5-.5h-6.64a.672.672 0 110-1.343h7.812c.371 0 .672.3.672.672v10.546a.5.5 0 00.5.5h.782a.672.672 0 110 1.344H1.562a.672.672 0 110-1.344h.782a.5.5 0 00.5-.5V25c0-.371.3-.672.672-.672h7.812a.672.672 0 110 1.344h-6.64a.5.5 0 00-.5.5v17.187a.5.5 0 00.5.5h28.906a.5.5 0 00.5-.5V14.453a.5.5 0 00-.5-.5H16.406a.5.5 0 00-.5.5V36.72a.672.672 0 01-1.344 0V13.28z" fill="#000"/><path d="M24.328 28.555c0-.37.244-.658.541-.722a.67.67 0 01.803.644v5.468c0 .476-.384.771-.803.683l-.017-.004-.016-.002c-.252-.036-.508-.327-.508-.677v-2.804h-1.242c-.364 0-.65-.237-.72-.53-.062-.447.265-.814.68-.814h.04c.65 0 1.242-.52 1.242-1.242z" fill="#000"/></symbol><symbol id="icon__prize" viewBox="0 0 50 50"><path d="M29.063 17.5l-1.016 2.617-6.914-2.5L11.64 43.75a5.544 5.544 0 017.343 2.656l6.133-16.875 6.094 16.758c1.289-2.773 4.57-3.945 7.344-2.656L29.063 17.5z" fill="#fff"/><path d="M28.808 16.874c.368-.138.726.046.832.385l.238 4.509-1.479-4.049-.001-.004c-.138-.368.045-.726.384-.831l.013-.005.013-.005z" fill="#000"/><path d="M29.879 21.769l-.24-4.51.004.01 9.536 26.144a.66.66 0 01-.175.706.7.7 0 01-.749.114 4.84 4.84 0 00-6.443 2.353l-.009.02-.007.02c-.076.21-.3.373-.582.374l-.165-3.121.309.845.553-.537c1.262-1.226 2.997-1.844 4.777-1.735l.762.047-7.571-20.73z" fill="#000"/><path d="M31.046 43.87l-1.168-22.102v.001l1.17 22.11-.002-.008z" fill="#000"/><path d="M31.046 43.87L31.21 47h-.016c-.3-.031-.524-.2-.603-.44l-2.778-7.668-.002-.005c-.138-.368.045-.726.384-.832.413-.129.76.063.858.375l.004.012 1.988 5.429z" fill="#000"/><path fill-rule="evenodd" clip-rule="evenodd" d="M20.9 17.022a.689.689 0 01.526-.03l7.305 2.656h.002c.384.146.533.528.412.83l-.003.007-9.534 26.141c-.083.229-.327.422-.608.452h-.016a.676.676 0 01-.604-.382 4.84 4.84 0 00-6.44-2.346.7.7 0 01-.748-.114.66.66 0 01-.175-.706l9.526-26.118c.09-.207.208-.333.336-.381l.01-.004.011-.005zm6.733 3.656l-6.096-2.217-8.774 24.11h1.182c.732 0 1.454.11 2.132.36l.009.002a5.8 5.8 0 012.193 1.366l.555.555 8.8-24.176z" fill="#000"/><path d="M40.39 17.852l-1.445-2.11a1.09 1.09 0 01-.234-.703l-.078-2.539c-.04-1.484-1.016-2.812-2.422-3.32l-2.383-.86a1.277 1.277 0 01-.586-.43L31.68 5.86a3.631 3.631 0 00-3.907-1.25l-2.421.703a1.204 1.204 0 01-.743 0l-2.422-.704a3.631 3.631 0 00-3.906 1.25L16.72 7.891a1.277 1.277 0 01-.586.43l-2.383.859c-1.406.508-2.383 1.836-2.422 3.32l-.078 2.54c0 .234-.078.468-.234.702l-1.446 2.11a3.585 3.585 0 000 4.101l1.446 2.11c.156.195.234.43.234.703l.078 2.539c.04 1.484 1.016 2.812 2.422 3.32l2.383.86c.234.078.43.234.586.43l1.562 2.03a3.703 3.703 0 002.89 1.407 3.06 3.06 0 001.017-.157l2.421-.703c.235-.078.508-.078.743 0l2.421.703a3.631 3.631 0 003.907-1.25l1.562-2.03c.156-.196.352-.352.586-.43l2.383-.86c1.406-.508 2.383-1.836 2.422-3.32l.078-2.54c0-.234.078-.468.234-.702l1.446-2.11c.82-1.21.82-2.851 0-4.101z" fill="#FBBFCC"/><path d="M25 12.89c-3.867 0-7.031 3.165-7.031 7.032s3.164 7.031 7.031 7.031c3.867 0 7.031-3.164 7.031-7.031 0-3.867-3.164-7.031-7.031-7.031z" fill="#fff"/><path fill-rule="evenodd" clip-rule="evenodd" d="M25 17.297a.651.651 0 00-.672.672v3.906c0 .388.284.672.672.672a.651.651 0 00.672-.672v-3.906a.651.651 0 00-.672-.672z" fill="#000"/></symbol><symbol id="icon__quotationMarks" viewBox="0 0 50 33"><path d="M14.937.497c-3.095-.825-6.189-.619-8.87 1.031-2.682 1.444-4.745 3.92-5.57 6.808-1.857 6.188 1.65 12.583 7.839 14.44 3.3.618 5.157 1.65 5.363 2.475.206.825-.413 2.269-4.126 4.95-.619.413-1.237.826-1.856 1.032-.413.206-.413.619-.206 1.031 0 .207.412.413.618.413 0 0 .207 0 .207-.206.618-.207 1.237-.62 1.856-1.032h.207v-.206c5.982-3.713 10.314-9.489 12.376-16.296.826-3.095.413-6.189-1.031-8.87-1.444-2.682-3.92-4.745-6.807-5.57zm26.817 0c-6.189-1.857-12.584 1.65-14.44 7.839-1.857 6.188 1.65 12.583 7.838 14.44 3.3.618 5.157 1.65 5.364 2.475.206.825-.413 2.269-4.126 4.95-.619.413-1.238.826-1.856 1.032-.413.206-.413.619-.207 1.031 0 .207.413.413.62.413 0 0 .205 0 .205-.206.825-.207 1.238-.62 1.857-1.032h.206v-.206c5.982-3.713 10.314-9.489 12.377-16.296 1.65-6.189-1.856-12.584-7.838-14.44z" fill="#F10132" fill-opacity=".25"/></symbol><symbol id="icon__sale" viewBox="0 0 76 75"><path d="M41.047 9.14L43.8 6.798c2.636-2.285 6.797-.938 7.617 2.46l.82 3.516c.528 2.227 2.637 3.75 4.922 3.575l3.574-.293c3.516-.293 6.035 3.222 4.688 6.445l-1.348 3.34c-.879 2.11-.058 4.57 1.875 5.8l3.047 1.876c2.988 1.816 2.988 6.152 0 7.968L65.95 43.36c-1.992 1.23-2.754 3.633-1.875 5.801l1.348 3.34c1.347 3.222-1.23 6.738-4.688 6.445l-3.574-.293c-2.285-.176-4.394 1.348-4.922 3.574l-.82 3.516c-.82 3.398-4.922 4.746-7.617 2.461l-2.754-2.344a4.634 4.634 0 00-6.094 0L32.2 68.203c-2.636 2.285-6.797.938-7.617-2.46l-.82-3.517c-.528-2.226-2.637-3.75-4.922-3.574l-3.574.293c-3.516.293-6.036-3.223-4.688-6.445l1.348-3.34c.879-2.11.058-4.57-1.875-5.8l-3.047-1.876c-2.988-1.816-2.988-6.152 0-7.968l3.047-1.875c1.992-1.231 2.754-3.633 1.875-5.801l-1.348-3.34c-1.348-3.223 1.23-6.738 4.688-6.445l3.574.293c2.285.175 4.394-1.348 4.922-3.575l.82-3.515c.82-3.399 4.922-4.746 7.617-2.461l2.754 2.344a4.774 4.774 0 006.094 0z" fill="#fff"/><g fill="#000"><path d="M24.992 29.883a5.39 5.39 0 1110.781 0 5.39 5.39 0 01-10.78 0zm5.39-1.64a1.64 1.64 0 100 3.28 1.64 1.64 0 000-3.28zM40.227 45.117a5.39 5.39 0 1110.78 0 5.39 5.39 0 01-10.78 0zm5.39-1.64a1.64 1.64 0 100 3.28 1.64 1.64 0 000-3.28zM32.727 43.418c.351.352.761.469 1.171.469.47 0 .996-.176 1.29-.645l12.89-14.59c.645-.703.527-1.816-.176-2.46-.703-.645-1.816-.528-2.46.175L32.55 40.957c-.645.703-.528 1.816.176 2.461zM27.453 47.461a1.758 1.758 0 113.516 0 1.758 1.758 0 01-3.516 0z"/></g><path d="M27.877 6.12c1.452-.428 2.982-.168 4.211.885l2.739 2.33.003.003A5.07 5.07 0 0038 10.526a5.072 5.072 0 003.17-1.188l.003-.002 2.739-2.331c1.23-1.053 2.76-1.313 4.21-.886 1.57.462 2.628 1.746 2.972 3.208l.818 3.507c.591 2.395 2.743 3.954 5.167 3.776h.002l3.66-.295c1.51-.084 2.965.514 3.882 1.797.845 1.183 1.153 2.783.515 4.264l-1.348 3.341c-.936 2.228-.104 4.792 1.988 6.115l3.033 1.867c1.336.805 2.127 2.235 2.127 3.8 0 1.567-.79 2.996-2.127 3.802l-.003.002-3.03 1.864c-2.092 1.324-2.924 3.888-1.988 6.115l.008.02 1.34 3.322c.638 1.48.33 3.08-.515 4.263-.9 1.262-2.392 1.881-3.92 1.796l-3.622-.293h-.002c-2.424-.178-4.576 1.38-5.167 3.776l-.818 3.507c-.344 1.462-1.402 2.746-2.971 3.207-1.452.427-2.982.168-4.211-.885l-2.74-2.331-.002-.002A5.073 5.073 0 0038 64.474a5.072 5.072 0 00-3.17 1.188l-.003.002-2.739 2.331c-1.23 1.053-2.76 1.312-4.211.885-1.569-.461-2.627-1.743-2.97-3.206l-.82-3.508c-.59-2.395-2.742-3.954-5.166-3.776h-.002l-3.623.293c-1.524.094-3.023-.54-3.92-1.796-.844-1.182-1.152-2.782-.514-4.263l1.344-3.332c.94-2.238.05-4.838-1.984-6.125l-3.03-1.864-.003-.002c-1.337-.806-2.127-2.235-2.127-3.801 0-1.566.79-2.996 2.127-3.801l.003-.002 3.03-1.865c2.035-1.287 2.924-3.886 1.984-6.124l-1.344-3.332c-.638-1.48-.33-3.081.515-4.264.916-1.283 2.372-1.881 3.881-1.797l3.66.294h.003c2.424.179 4.575-1.38 5.167-3.775l.818-3.508c.344-1.463 1.402-2.745 2.971-3.207z" stroke="#F10132" stroke-width="1.5"/></symbol><symbol id="icon__social_vk" viewBox="0 0 30 30"><path d="M23.605 17.326a9 9 0 012.16 2.4c.73 1.15-.8 1.25-.8 1.25h-2.91a2.17 2.17 0 01-1.46-.43c-1.1-.72-2.15-2.59-3-2.35-.85.24-.8 1.92-.8 1.92a.85.85 0 01-.15.58 1.09 1.09 0 01-.6.24h-1.271a7.69 7.69 0 01-5.47-2.35c-2.781-2.77-5.271-8.301-5.271-8.301s-.1-.35.05-.53c.15-.18.65-.19.65-.19h3.11c.178.029.348.093.5.19.125.104.228.234.3.38.329.793.713 1.561 1.15 2.3 1.31 2.17 1.91 2.68 2.36 2.45.65-.34.45-3.07.45-3.07a2.83 2.83 0 00-.3-1.44 1.59 1.59 0 00-1-.48c-.18 0 .13-.4.5-.58a7.53 7.53 0 012.76-.29 6 6 0 011.561.15c1.08.25.7 1.23.7 3.55 0 .74-.16 1.76.4 2.11.24.15.84 0 2.31-2.35.468-.784.873-1.603 1.21-2.45.073-.135.176-.252.3-.34a1 1 0 01.45-.1h3.321s1-.14 1.16.29c.16.43-.46 1.5-1.76 3.22-2.22 2.82-2.45 2.59-.61 4.22z" fill="#000"/></symbol></svg>